<mxfile host="65bd71144e">
    <diagram id="6N7yFYgdLEKor-hbq5Wk" name="第 1 页">
        <mxGraphModel dx="750" dy="572" grid="1" gridSize="10" guides="1" tooltips="1" connect="1" arrows="1" fold="1" page="1" pageScale="1" pageWidth="827" pageHeight="1169" math="0" shadow="0">
            <root>
                <mxCell id="0"/>
                <mxCell id="1" parent="0"/>
                <mxCell id="65" value="" style="rounded=0;whiteSpace=wrap;html=1;" vertex="1" parent="1">
                    <mxGeometry x="200" y="1680" width="250" height="290" as="geometry"/>
                </mxCell>
                <mxCell id="2" value="大二全:&amp;nbsp; 所有资源的管理, 提供自定义资源的可扩展能力,&amp;nbsp; 用户可以自定义模块" style="text;html=1;strokeColor=none;fillColor=none;align=center;verticalAlign=middle;whiteSpace=wrap;rounded=0;" vertex="1" parent="1">
                    <mxGeometry x="10" y="40" width="440" height="30" as="geometry"/>
                </mxCell>
                <mxCell id="3" value="Model (模型表)&lt;br&gt;&lt;br&gt;名字: Host" style="rounded=0;whiteSpace=wrap;html=1;" vertex="1" parent="1">
                    <mxGeometry x="110" y="150" width="120" height="60" as="geometry"/>
                </mxCell>
                <mxCell id="6" style="edgeStyle=orthogonalEdgeStyle;html=1;exitX=0;exitY=0.25;exitDx=0;exitDy=0;entryX=1;entryY=0.5;entryDx=0;entryDy=0;" edge="1" parent="1" source="5" target="3">
                    <mxGeometry relative="1" as="geometry"/>
                </mxCell>
                <mxCell id="5" value="Filed(字段表)&lt;br&gt;&lt;br&gt;Host: ip&lt;br&gt;Host: name&lt;br&gt;Host:&amp;nbsp; describe" style="rounded=0;whiteSpace=wrap;html=1;" vertex="1" parent="1">
                    <mxGeometry x="300" y="147" width="120" height="130" as="geometry"/>
                </mxCell>
                <mxCell id="8" value="&lt;h1&gt;自定义模型(UI)&lt;/h1&gt;&lt;p&gt;1.&amp;nbsp; 创建一个证书模型&lt;/p&gt;&lt;p&gt;2.&amp;nbsp; 为模型添加字段&lt;/p&gt;" style="text;html=1;strokeColor=none;fillColor=none;spacing=5;spacingTop=-20;whiteSpace=wrap;overflow=hidden;rounded=0;" vertex="1" parent="1">
                    <mxGeometry x="540" y="120" width="190" height="120" as="geometry"/>
                </mxCell>
                <mxCell id="9" value="" style="shape=image;verticalLabelPosition=bottom;labelBackgroundColor=default;verticalAlign=top;aspect=fixed;imageAspect=0;image=data:image/png,iVBORw0KGgoAAAANSUhEUgAAAggAAADiCAYAAAArvD+uAAAAAXNSR0IArs4c6QAAIABJREFUeF7sXQV0VUfX3QkEIsRDSLDgwd3dXVsKBQqFGlSp0H51anzt15+6UqjQFigt3uJQ3J3gBEiCxCDEBSL/2icNQZ7c9959LwmdWYsFJHNn5p6ZO2fPOWfOdqoaUjkPAJycnODq6sJ/Gi2sw5KXJ49oLm6u7sjITNdcX1VUElASUBJQElASUBIoWgk4WQIQinaoqnclASUBJQElASUBJQFHSUABBEdJWvWjJKAkoCSgJKAkUIIkcAtAcHMrU4KGroaqJKAkoCSgJKAkoCSgtwQKwghuAARnZ2d4e3vq3Y9qT0lASUBJQElASUBJoIRIIDv7OrKzs2W0twCEgAC/EvIKaphKAkoCSgJKAkoCSgJ6S+DatWvIyspUAEFvwar2lASUBJQElASUBEqyBBRAKMmzp8auJKAkoCSgJKAkYCcJKIBgJ8GqZpUElASUBJQElARKsgRKHEAIDg5GxeBglC5dGhz88RMnULduXSQlJSEhIQGurq6SvCkuLq4kz4umsfv4+KB69epISUlGZGQUrl+/Dj8/P5QrVw5lXFzk79S0NJw/fx5ZWVma2nRUJQ8PDxlrdHQ0/P394ebmioiISJQvXx6+Pj5Iz8iQhF18x8jISCQnJztqaNJPixbNcejQYfj7+aGsqysuXLiA+vXqwdOrMHg3NTUNp0+fQmamPrItVaoU6tevBzdXN5m3M2fOwNfXV9a1l5eXrGv+4dovWN+UXcWKFeHh7o7cvDxERkTg8pUryMnJsVheZcuWhYuLCzIzKXtnCU66OREax5ebmys/Yz3WT09Ph6enp8xPQV0GOXPeMjMzUbNmTYSFhVk8FmMPNGjQAEePHpVfs39++1zbXOss3AdOnz6tW383N+Tt7S3zwz7Onj0nMuBcXL16Vbf+KGOue8qZf1O2/NmVK1dkLV67fh3u7m7w9fHFhYsXRQaUPeeKsuAewHVTMCd8tlKlSoiJiUG1atVkjtLS0pCSkoLAwEAZO9eXlhIcFIRynp4yrsyMDESdP2/2MX7PHAu/YY6D4+RYWPiO9i78frg2KIe8vFyZu+TkFDRq1AgnTpxAk8aNcenSJTg5O8s+WZyLj7e3zLeTs5PsC+HhZ2S+27RujQsXL4g+RB6QnZOj25osUQAhNDQULVs0R2kXF1QIDMS5cxFYuWoVnnh8kmyKnPwrVxJkAW/YsKE4z7XNY3N3d0eTJk3QvVs3ee8NGzfKAm/apAm4ifL3Pj7esoiW/fmnbgvG5oH/00CVKlXQqFFDbNiwEW3btEFghUAsXLgInTp1RJ3atXHo8GFUrlQZtWvXxu9//CGbniPLf6e9h2XL/kTCVYJON5w8cQJPPvmEADKuL260UVFR+OHHH2XN6VH48T/y8EOykcfGxWH3rt2iaHft3g0C48TERPj7+6GcRzls2rwZFSsGy887dewocuKG++NPs3H48OEbkceWjIvvVqFCoCjg0qVKIyU1VTai7OvXkZObK+/Od6ZS4bjatGmDLZs3I7RuXRw6dAhBQUEC+EJCQuT3sbGxeHDcWHzwvw8tGYbBugT+lPuI+4bj9z8WiPy5xh979FGcO3cOzZs3k+8gJjZW1hH/rXepWzcUTz35pCiUdevWi3w4Z5S3HsrO2ckJbm5uKFW6tChggg9+y5UqV8KmTZvRoEF9AWRU8IHlAwVE8rC0fccOmX/KPCU5WRRIWlo+cNu3bx/GjB6NxUuWYMSIETh48KCsIwKOAsBAgKDl++J36efvj1YtW2LLli04eOiQAMCIiAh5f84Hx89ChZyakoLWrVujbNkyWP/3BvTv1w8ZGRnYuGmT1C+Ijtd7nm5ur2vXLsjJyUVaaipycnME+B47dgyvv/YqfvttPiZMGI+tW7eiTJky+GPBQnsOxaa2eZhqUL+ejJNgpmqVqvhr+XKR4ZjRowQkc11s27ZdQCTXqB6lRAGEFi1aoHatmsjIyJQN4HDYYVy9moiJEx+Da9myIo9r164jMSkRc+fO00M+xbaN2rVqoVnz5ihdqhQ8PNxxKTpGUHqN6tURUD4A2dezkZ2TDSc4YfWaNbh8+XKxeheCl8DACrh48SJ6dO8uim/R4iVo3KgRuBHv3bcfXl6eKONSBvv370fC1asWp/W29oWbNGmMcWPHisx27tyFtHSe5s9izJjRiImOQceOHZCamopt27fj7783yKanR+GJtF+/vmjXti2OHD2G69euiXVo9569svFyzXNsfr5+WLFypciJG0SH9h1Qq3YtuJQujW+/nYFwK8EUAXib1q1w6tRpnD13TubEx8cXLi6lceXyFTRo2BC7d+8WhcCTYdu2bZGelsbc7ALIR48ehfnzf8f48eOxd+9exMbE4MEHx+H9D/5ns3io/LhJ0opz7PhxsZDEx8ejZcuWiI+LRffu3fM3RScnbN68RRSg3oXynvjYY3L6joo6L/1xUyaYq1qlyi3dpaWni+XEEssXLS/lynnAxaWMrC+uh9atWqF9h/YCVtlHSmoKkpKSxcqWde0aQuvUwfIVKwRYfvPtDPCU2bdfXxw9egwBAf6yhnmI+HbGd3jyicdFOcfHXxYlybXTunUrBPgHyHrSUgjUhgwejAULF6Jbt64CjjmWLVu3gqCfoKZy5UpITEyCu5sbriZelX/TajBwwABkZGZg40bHAYRR948US+Cpf6xKBCwHDhzAq6+8LHLju4gFwckJn3/xpRYRFEmdChUqoHu3rmJJJICknjt08CC8vL3hhDyxknTp0gXfzpiB6OgYi9adqRcqUQCBm1Knjh14I1MWZMMGDXDg4EH06dNHNqP6DerLBrJt2zbM+21+kUykozqlCbxvnz5ISLgqG3h2dg6OHjsqG0tuTi4qVaooHy83HCpbPc2ger1jqVLOcuro2KEjAgICsGjxYgEITZs2waHDYTh58qQoxQKztqW8H9aOs2WLFhg1ahSWr1iOXj17YvnyFTh56hQefughObnzQ6UCOHb0GNasXWttN3c8x821d+/e0v7OXbtx/VqWbAS0kvE0SJBAd0Kzpk2xfft2MTFTiQwePEhOsp7lPLFw0SIBitYUWuVolfIo54Ez4WdQo2YNkT/n5uzZs/Dz88fx48fF3cJvkUqa1gsfXx/8+uscTH3zDUz77/t47913MHfeb7oCBJ6cCBBodTpy5Kj0TTcLT6pBQRVkD4iKjISzcyls3bZNTtp6lwKAQAVLF5i3lycOHw7D2XNn5UR3cyFw2Ld/v0WWDGdnJ3lHWm3i4uLl22CfoXVCcfLUSdnvCI74jRMw0ZxctWoVLF32Jx6aMB4zvpsJP19fWUNHjx3Dzp07MX78g6hUsaKAh6efelJOmLTs0EJHgNCqVUsE+Ptj5arVmsTVv39/sZgQ2H/5xeeY+tbb6NKlM5YuXSbrhG1yfdKSQ8sgLWwEPvx2CRDSM9IdDhAys7IETLKULesq386UF57HsmXL0KFDBwFa1UJC8MabUzXJoCgqcV0QvHO8dHVxfYWHh8s+yXX494aN+OzTT7B582Y5UFi7B9z+biUKIHABjhp1P86Eh4v/677hwzFz1veyedLMyI11wIAB+Oijj+X3jjBhFcViYZ+VK1fGsKFDxD+enpYufvyly5aJCbichwfuuWcYDoeFIfx0OOLi4/P9U8Wo0P9JK8ipU6fEDOkf4I+lS5YisEIF1KxZA1GRUbiamCg+Np7C+LejAALF9P5/p2HlylUoVbqUfJBr167Ds5OfwZq169Clcydcv56NHTt3yolar0IlT8sFLUC0nNBtRoVMcy5dCS1btkB8XDyuZ2dLnMDx4yfkxDZs6FDZAKm0qRy5OVgjK84JlRPjGRgTknXtOmrVrCl98F1bNG+Offv3iTWlfPkAMd1SUT/80AQ5fb38n5dw4uRJ8YnOnTcPsTGxulkQ6PpwdnJGw0aNcCQsTN6PJnYCpJ49e6Be3bry7slJyaIc9bLq3Dy3VNaPT5qE+MuXRfFTgZ+PipI1oYeFjqdYftfdunZBRmamWCkYb0DgR39579695G8qPLoY+E1zXfC7b9iwIXy8vYgZ5HshsORBqUH9+uJa+Orrr/HMM09jz549iIuNE5DHQwbr0w2pJU6kZ8+eGNC/n6wFmrR5EPHz98PFi5ewfv16WSf8VnhwoaWD6zAs7EiRAwQqVypUFu6FdGtyjHv37ZM9iPvMyBH34eVXXtXrU9a9HX6XIVWrYsiQwSL7mJhYWfs///ILWjRvJgeKj6b/n1gQCc70crGVKIBAqbdt20aCn1KSUxBaNxRbt24T5cGf8YTVsWNHrF27VhalNYFaus+snRrkx1ilcmWUdiktQXL8MGn65cmJGw0DlnjCon+x4ARup6FY1SwBDRf86fDT4rumcow4FyEnM56O+A6cP46dmz3n2JGlY4cOSEpOktNq506dZFPk6ZXmd/qCOR6aLqmo9FpnnNNWLVsgJTUNnp7lJJjqwoXz4lIjCKYPmMqJIJAuNSoKFsYGJFNheXiIoro5YNASmfH7kSAoQNYV+6XLikFPXFv0WTPGgNYoAggSuXKzaty4kSgCxr/QBEof6OlTp2QuqVT37dtvyTAM1vXz8xX/MdcGfejsnO2XcnYWyyELFSpP1/xjj8JNulHDhgLQ+J0RpHH+L12K1q1PzjO/XQYZ85CTl5sLlzIuEsBL+fNboJWAMTvHjh0XefM0z++EAI6Wli1bt6BChSAxnVOJEAiEHQ5Dq9atxOpwJSEBcbGxqFevnrhHeBLV8n3R3eHu4S6iZX90v7Vr1/aGy4J7LtcQv4/MjEyEHTkidQuYf6tVCxHX58VLl0RuesRtmJtngmq+W2pK/pqgeZ6HScqZ65gWOYKHrl27YsmSJeaaK7Lfi4XQ0xPVq1WT754uG7oVCMKqhVTFuYhI3DNsKBYuWqzrGEscQOAC5ITTOkDfOzexguhuLlCaHLUsdl2lWESNFQTLFVH3NnXLsRsDcfkRx/kR+9achG0a2D8Pc2y3b2D8Gf/cSD3q5HQj4lyPPtkGFQMV0I385050qDnJDYWbSz7Zuuz3qjhYAgU3De5mC6WDRWq37m7WF+yEgOnm2zkFN3MItPQ6ddvjZTjuggMTDxL8d8EeQVBIRc74k0Sdg3NLHECwh/BVm0oCSgJKAkoCSgJKArdKQAEEtSKUBJQElASUBJQElATukIACCGpRKAkoCSgJKAkoCSgJaAMI9MuEhNx6r1fJTklASUBJQElASUBJ4N8jgfysm/lZUu+ge2aUrir6SaAgypdBlMXt2qHWt3R395AAmQIKUK3PFZd6bm6Mws6zyzU4Y+9YrpwnrklOg+J11ZTBTpzP5GT9sw4akwWjsdlvwbWz4rIuOA5fX79/8oU4JvST+4GXlzcSE/VL1ayXPItizXp7+yA1NUW3W0F6ycKWdvLXlD6ZVm0Zh7XPlinDdOppdwIEHx8vZGTon2zE2oHeDc9xQyAHQb5fR5/8/Y6WCzeOnJxshypYPd+R8ueFAC56RxVeQeU13OI256VLu/xz3ctxGxgz8TFTIE8lxa2ULx+I+HjHcbhwP+AdfT1yKOgtSwIXHgIcuWaZiCspKfGuAgiOXlN6rwMeIIgD7rAgKICgt6ghV+QUQNBfrpa0qABCobQUQLh15Th6M1cA4Vb5K4BgyU7mmLoKIDhGztKLAggOFLaRrhRAsA4g8MDg6uZqdALJlBcbY57vw1YLQjlPD5OLiIl4rGXX1AoQ6CJxdS1jchwcA9Ofmyq2AgQ/Px+UKWt8HDz1xcbkpxi2tGi1IDCfSYWg8iabT0/PQHJSitkh2AsgeJRzl5w5lLfhkofL8VftknlX65oyK5wiqqAAggMFrwCCYWFzw+VG44gEVwogWAcQfH294eZ+J0B44/V38fHHHwih1aWLsWa/JlsBgqdXPq3zzYXUx3Xr1seOndskUx+Tp1lTtG7m5D5xdc0nhzNWOAZ7AwR/f1+UNQBU5s9bgpGjhopZOPqSdS4TzQDB2QnBwYEmZUFmyaTEogMI3j6ekrK6IKNjwWAbNmgkmWYvXrqAK5evSnpqvYvWNWWuX14ceHbyC2jUqAmmvvUaIiMjzD2iy+9LNEB45eWX8dPs2UI+0r59B+zYsb1Y+6/sBRBILMTUu7Nnz76RWa98QIDkqtebtMbaGAR+nEwJ/M7bb2PsuHGyeXVo3x7Tpk0DlQazm7HOl199JcyA/D9T6np4lJOUtvSFPvHEk/jjj9+FqY/PBwdXxKVLFy36EBRA0AcgcC2/+ca7+PyLj2STZSkKgMDAtqZNmmPT5r9lDP9mgEAlMvun+Xj4kTHyvSiAkL/WbwcI3Gfq12sg+82Ro/m8HsUZIDCL4hOPP42//16HLl27Y/HiBbh48YJF+561lUs0QCAtLqltBw8ejPi4OKHv1CsvvrUCNfWcvQAC88OT9lZSceblYc/uPXjk0Uewfds2oXHVM9DIGoDA965ZoyaaN2+GsCNHERpaR4hkyGX/2GOP3TD98UNdunRpPvPboEHCkDdn7hzJR0/2zk8+/hhvvf22kAFt37FTAv/IVWBJUQDBeoBAUy3nhkGGz06egtmzv0dsXMyNBh0FEArSYPOU27xpC2z8Bxz8GwECuRFyc3OEpfDTj7/Ci/959kYAqAIIhQCB3CYSaOfkhNDQevKLkyeP3+CpKa4AwdXVHQ+Om4D9+/egSdPm2LN7J44eO2LUHUKQaKhYy31RogHCM08/jfvuuw8jRo7Ea6+9jhdeeF5XZWiJ4tFS114A4f6RIzFp0iTMmDFDSJtOh4fn0xSvWCFMgHoWawAC+yfT4LT33sPMWbMwetQoPPf888Ic2LFjJ2GiY2EE86aNG9GyVSsMv/defDdzFsLCDgvnPZnXvvziC3FDvDBlCho3boLTp08jKsoyamMFEKwDCH7+vqhfv77c/rhv+CgsWvz7HacYRwAEL29PVKpUSYismjVriU2b1t+yvP9VFoQAX3Tp0g0XL5zH5Gem4P3/vYMrVwrjQBRAKAQIXbt0R0zMJXh6eSI3Jw/h4aeQnZMtFYqrBYF77aj7x+DkqROoXq06wo6E4fDhQ8jONuwKoX6pX7+Rge0+T67SWnqYYkMlHiD06NEDb06dKi6GWbNmOsSPba3CdQRAIJMeKWiHDhuGdevWYePGjbqyplkDEIjaqZjJHjdh/Hi8/c47wjhINrKRI+8Xamoy9R06dBA//vgj6B4ZOHAg5s+fjxYtWoBm5B9/+hEfTZ8u1yunf5Rv1mYUvqWLXgEE6wACYxCq16iO4ffej+XLl+JcxNk7PgNHAATGIBBYNmvSAn9vXHfHGP5VAMHfFz6+3nj5P2/g2xlfIjr60i3yUAChECAwBoEgavfuHdi3f88teqI4AgQSMN03fCQqVaqMnNxcbN60AQcPHXC4fivRAGH06DHYt28vXnjhBZw+HY5PP/3E4QK0BCzYCyD07dsXI+67D3/88YcwAZIKlO4XKlFSXyenmA8Q0voe1gAEKvLu3bujf/9++PTTTzFx4iQsWbJYKIrJVU/rAuMQzp8/L4AmJCQEfKevv/4aW7dtwyMPP4x169fj8ccfx+eff44333gDZ8+exS+/zlExCFonzkA9S645GgtSvLlZRwEEU6/8bwMIhoIUC+SjAMKtAOH2IMWb5VTcXAy1a9dBrVq1EVqnLvbu24Pdu3cWSaK1Eg0QbNgbi+RRewEER76MNQCB4zNFTU23CP3aly/feSWLMtOT9llZEKyzIPj4ekkkuLHC+BdHXHM0dIvh5jFdv3bdIdcc3dyM32Lges3IyDIbD2XzNUd/H5O3KXiLIi7W/NVTQ3Oq+RaDkxOCgsvfcUPgZuWblpqO5ORUs9uUva458mpsuXLGrzlyvi7HJ+D69XyXg57F2lsMPnIzp54cgCx1o+o5fgUQ9JSmmbb+zQDBgWI22ZUCCNYBBG6wZU1c7UtNTUNWpvlU0rZec3RzczWqjHLzcnH9WrZZxWxsgWjdzBkIVqaMC5ycDLeUk50jyoYBw6aKrQChXDkPlGUeBCPj4FXL9DTr0uVbAhB8fDzhbCQ4LicnFxnpvIVkfm3YCyDwcOLlXU5SfBsrCVcS5SCid9G6pvTuV6/2FEDQS5Ia2lEAQYOQ7FxFAQTrAIJe02IrQNBrHIbacfRmbitAsKcstAIEPcdgL4Cg5xgtbcvRa8rS8ZmrrwCCOQnp+HsFEHQUppVNKYCgAIKtFgQrl94djymAcKtIFEDQa2Xp145RgFC+vH+RBEXo92rFryWaushmxyRA/FMSC0+AvHdtj6xjjpAH5U82Ry0mT73G4+bmJsGzxW3OS5Vyhqurm0OZFZn0hSZ65rAobsXT0xMpOgb0mnu/gts9qanm/fPm2tL791yzvE5nD7+8sbHSZcK0zLm5uXq/TpG15+g1pfeL8lu9g82RP6xQoXyx29D0fnlHt0efJSPHqWDpmyuJhRs88+6bSyNbXN+twA/pSGXNK0tkwCxuc+7s7CTBoXom0jI379xbeHJ2RFptc2O5/fcEv44ELtwPmODIkX1qlUlRrFmCdzLd2iMWQOt7612PQItXs0tqIVhTdM8Omj3lYnCQoE10o1wMhcKx5JqjXjOnYhAKJalcDLeuKuVi0Osr068dFYOgnyzNtqQAglkR2b2CAggKIBhbZI4OKFMAQQEEu294NnagAIKNArTkcQUQLJGWfeoqgGAdQOD1QrIYGis0C6ekpJmdNFstCHKtz0ShG8da95FWgMDv2JQsODy55mjGl24rQGBeitKlDefe5xh4aS9FQ/4BQ+LUeouBcRSeZii4Ga+khYLbXhYEurUYb2MsURLfn2O0h2tD65oy++EUUQUFEBwoeAUQHChsI10pgGAdQDCWSbFfv0FYv34NsrIyNVEL2woQzCkjKmYtysjQ8tC6mRd3uueCd1OZFPMlQVDJOTMFENLS7BMcqXVNmdsZqTu6deuBShUr46/ly5CQcMXcI7r8vkQBBAaYEZWbQ+a6SMYOjWgBCAVMdca6Z5AgA5tSU1PQqFEjVKhQARcuXECTJk1w6NAhJFy5goaNGsHX1w/bt28DU3YylTHy8rBq9SohPmrQsCF+/fVX+WCGDbtHgmh27dqJ4cOHC+GTqWJtJkVDbdatWxf8Q9Klrl27IjcnBzt37kSFoCBhbLySkAAG+bi5uuLHn36SVMy2FlMAgQRRV69exbbt29Gta1e4e5RDbk42lixdinvuuVeiug8ePIiEhKvo3KmTZH48eOgQ6tSujTqhdXHmzBkcPHjgjiEyUyQD0RwZDKhFTpbEIBgCCEOH3CvkQDt2bpNTu0NSLZs5rXIczGJoTdG6mSuAUChdJ2cnBAcHmhR3Wlo6khLNp3u3lwXB1ZUAwcXkGHl7wh5BxFrXlKnBUSf07NEbzqWc0b5dJ8yc9Q3On4+yZolb/EyJAggdO3aEr48Ptu/YgZo1aiAzKwsnTpxEnTq14ePjIxO8Y8d29OnTF7t27RIGq+JUtACEfn37SoT3+r//Ro8ePUUpRkSck+xwzs6lULtWLfTu0xuLFi6URV+xUiVR8ARNVG6tWrZE1rVrOHcuAufOncWrr76KrVu3yYI6fvw4xo4dh2PHjqJ/v36Y+tZbaNGiJdLSUhEZGYmmTZti+/btJk1tegEEniQHDRyEnj17YOWq1ahduxZyc/NwJjwcCVcT0KVzZzRv3hwbNmxAeHg4duzcKe9nazEGECZMmIDLly/D2ckZ6/9ej2++/hpfff010tPTceTIEbz44ktYsWI54uLiwDSoBdfACLKqV6uGyKjz8rwhnva7ESAMHTocVy7HY5fkiM9XyAogFK5OZjE0d9PHVheDv78vFBeD+R2hJAME7vk9e/aWw1w5Dw+kpKRi+46tckB0RClRAKFDhw7IysxCdEwMXEqXxrgHx+H7779H+/btsX//fkx+ZjJOnDwhBEUBAeUFLBSnogUgtGjeQsxHrdu0xb59+9C4cWNs27YNr77ysij9nbt2Yty4cfj5558RHBSE9IwMDOjfH9HR0QIE2ndoL6/M7Kt//vUXnnv2WTmVV6lSBZ9/8QWI0h979BGsWLFCTspvTZ2Ko0ePSV2a4niSJ+mTsaIXQKA1qE+fPkLr/Msvv6BMmbLIyMyUcbdp01r8pwRF/n7+SEtPx08//WRQ+Vo6v8YAwrfffIPDhw+LVYZsk7/8/LOQRdWoUQOffvYZfp//O+bMnSNyJkgYOWIkMjIzsGnTJvTp3QeJiYmIiY3B4sWL70oLgp+/D6pVq4bk5CT06dUfcfGxQiJD10JBUQBBAQRD36OyIMRZuk1JfQEHPXrBydlZmG/JgLtv3x5cvZpg8BBH/VKtWo07+qKriYAiPt7ycZQogNCoUWPExcWia5cuSExKxgNjRuPtd95F82ZNsezPP/HrL7/gzTffhJe3NyY+NhETHppg1cTY6yEtACEoKBixsTH48Ycf8M677yEgIEAojb+fNUssAL/Nn48xo0dj4cKFcsI+duwY6tarh82bNsE/oLxQKh89egTeXl5iDu/UqbPwiJMB8ZnJk3H1aiIaNKgvtMtPP/OMuCa4gPr07o05c+fiwXHj8O5779kdIISGhuKVV14RZfvhhx+iWrXq6NSpk1g9ateujUsXL2Lzlq144vHHhbFz5apVuiT0MQYQ6FqhVaZVq1b47rvv0L//AGzavAmzZs5Ez1690LNnL1l7kydPxkcffSxBT7SC0JLg5emF6JholC5VWlwOmZm33nu+KywIft7gnHXr2gvh4aewb//uO+7vK4CgAIICCLdKwBYXQ69efVC/fkNxTZ49Gy77IA+PxoIpxcpQztPg3k2r9O37khY9V6IAQsWKFTF+/Hgx5dKUXrVqVUycNAktW7SQDIX0ob/+xhuY9t57Ypae8uKLWmTgsDpaAIKXlxc+/eQTfPzJJ6LU4+Lj8e6774qVICU1VWiOn3zySayyw0Z2AAAgAElEQVRZswaHD4cJeBgyeLAosRUrVgooGDp0iMQa8ORbtWoI+vTuJe6Y999/Hy9OmQLK8bf5v2PdurWiAJnJ7ZNPP8XFixdBgEIlbW8LAhHxvffcgwceeAC//Por9uzZiwkTxuPo0aMCesq4uAi5yv33j8Kq1auxZs1qXRKOGAMItEJx/dCF9fIrr+CBMWPQsGFDbN22HT/++AO+/uorhnHgp9mzkZSUiJf/8x+cOn0aM2fOQrt2beVd6BaaM2fOHWRBdwVA8PWGt483AgMriGuB1pPbiwIICiAogKAPQAgJqYYmjZuiSZNmOH7iGDZsWG8SHNhLiZUogECFERQUJIqCKSz5/6ioKDldV6pUCdOnT8fGTZtRuXIlJCUlITY21l5ys6pdLQCBdWrVqiWBe3Xq1JF4BL6ju7u7IEcGYRGV0mTUoEEDBAcHY926dRKIGB8fL2YoBi7yZHvp0iWJUwjwp5k+Q0xMdDUQTEVEREjWMvbBNtPS0vDM00/jtddfd0gMAgXIOatXt64oWvrWeJWOwXwcC68mcexUrsnJKWLa1iM41RhAYOY4AieicAZ9UmaeXl7iUiCAYswLy7mICFl3NLczPoF1OcbAwECJkeAc3F7uFoDg5u5qct0rgKAAggII+gAEHtSaNm0u7oTjx49KCnB7XMM0p8hKFEAw9jJUNNy0Y2Jiil2k+M1j1gIQzE3Yzb8naKBio//b1kL50Z1BGZoqesUgsI+CtLsEKFTMegAAc3JQ1xwLJWTJLQYfHy8QIBi7KpacnIpUB+RBIO20sTEwyJWg11r+AK3mYH4rrq5lTdI9Z2ZdM7uebQ1S9PH1hpsbx2GY75lX95ISk819EgZ/b0kehMAK/vItGyqMI0pJThOOBXPFXrcYKGfOF92CxoqWHB7mxm/o91rX1O3PUp50YfKAyDVdVOWuAAhFJTxL+9UbIFjavx719QQIeozH0jYUQLAOIHDt5ushw8qI4E7LCcfWPAim7rJzdFrGYGzNWLKZ6zEOWwGC2TnJy0VeLsN9LS9aAQJb5vU7JyPrIg95MgYt82IvgCCr1giIKpCMlvFZLkWItdea4EBr+rLHMwog2EOqRtpUAMGBwjbSlQII1gEEvWbOVoCg1zj0PO1ZOyZbAYK1/Wp5zhKAoKU9LXXsCRC09G+POgog2EOqd2mbCiAU/cQqgKAAgh4WBD1WsgIIt0pRAQQ9VpW+bRi0IND/UblyRX17Uq0pCSgJKAkoCSgJKAmUGAkwEJuJ9OiCcaoaUlkcVkS2DErKyEgvMS9SEgaqLAhFP0vKgqAsCMqCYP47VC4G8zLSUkO5GLRISdURCSiAUPQLQQEEBRAUQDD/HSqAYF5GWmoogKBFSqqOAgjFZA0ogGAdQJCIeWfDNxikxbz81Njmiq1Bis6mxiC3GKy/yaB1M2dEvJmgeDHJciymiq0xCHJ7wNRANM6JoTFaAhBKmaCclqWRm2f2yifr2SsGQct88YqsPYrWNWWPvvVoU91i0EOKGttQFgSNgrJjNQUQrAMIxuiemVmRrJbMZRETfWeSqNun0laAoOieCyWqyJq0bRR3A90zQY6/f4DkRmACwOvXHZMboUQDBArN0P1VKmJmCDxx4oS2FeSgWvYCCP7+/nKSYArqgmIvamxr8iAw6JWkR3m5ubhw8aJkIbyWlYXEpCQhIWFmTD9fX0klnZSUDD8/X8moeOVKAnJzc+TdOM9M5MRMkfybbVLZWzrHCiDoBxAqVaqCwYOG4aefZkrqZZVJsVC2is2xUBaKrMlykqSbVRL3P2bMHThgCJo3b4n3338XkVERDtFaxQYgUAhubu5wd3cTJUHUR6VApcq0wUw1yYxSNEOlpCSDnAXc7MkfQKpn1qWCZHreqlWqYObMmejWvfsNIbJ9Zh5kWxnp6QgoX15S6F65csUhgmYn9gIIgwcPFgW7atUqYUGkEmUK49i4OEkVrGeGQksBAuXO1NGPP/64AITNmzfjueeew5kzZ7BkyRJ06dIVx44fQ7euXXH8+AlhmCQHQvSlS9i+Y7vMuYtLGUk5SjZPpmEeOnQoYmPjMHjQQPTo2dOi+VMAQR+AwFzxffsMwLx5vyA5JT9bnwIICiAY+hgVQLAeIHD/rFy5Cnr06IXTp06hZs3aWLnqL4clXyo2AMHPz0+Y9CiQmJh8DgUqA54wKwYH41zEOfk/mf6oNHx9/SRf/tp1a1GnTqgAg7Vr16BXz57C0/DEE0+ga7duN9YrTTOhoXWFp4En1koVKwrxERWSo4q9AEKbNm3QvVs34QXgyXr/gQNCgkSGx9Vr1ki6Tr2KpQCB4xk8aBAuX0kQkp8pU6YIhwTpub/48kv06N5DCKcI3mj1iI+/LOAhJzcH9evVF6tCenqaEDgxhe5rr74CD49y+OzzzzHzuxno3aePRa+mAIKVAMHPG7RUXbuWhapVQtC5c3csXbZQgFtBUQBBAQQFEG6VgC0xCNSFVatWQ8eOnXHx4nkEB1XEnj27cS7ijMF4H9b39PQyuB/SJUG9Z2kpNgChXdu2uO+++/DV11+jVctWOHrsGC5evIDgoGDk5uXKKbJly5Y4ePAARo8ahWXLlglVsK+fPy5dvABvH18xN//15zIMHjIEq1etQpeuXW/IgyRFnTt1Fkastm3b4vvvvxchX7x0yVKZWV3fXgDh/pEjMWnSJJCy2M3dXRRsv759sXzFCmzZssXq8Rp60FKAwDZotZkwYQJ2bN+OrGvXhMqaAOH//u//8q0F0dGifEjKlJaeDi9PTzmVdurYCVu2bhHLQnb2dZQpUxbDhg3F+fMXEBkZie9nzVQAwYbZtYSLwc/fR6jE/Xz9UTe0PlavXSGxBzcXBRAUQFAAQT+AUL16DfTt01/0IA+4hw4dRPiZcOTkZBv86qlfQkKq3/E7WteZy8CalM/FBiBw8xlx333Yum2bsOSRGY8n4tatWomFYM/evRg0aKAwEdaoXj2fyrhKFZw9ew7169cXJfTzL7/g44+mY+3atXjmmWduAQiNGzfGq6+8IiyG5NdeunQp3D08sHXrVhu2WMsedQRAoHXl/PnzGDRoEHbt2oU1a9fqSvZhLUAgRXVaaioSrl5F+3bthGRq7rx5GDN6NNauW4erCQnIzcsn27l48ZJYPUJCqoqV5+rVxBsAgfELUVGRAhbmz/8NfZQFwbJFeFNtSwACgxQrVa6ETh27YNeuHYiJjb6jXwUQFEBQAEEfgEAG2D69+6NGjZpITLyKjZs2IDz8lAQDO7IUG4BABd+qZUvUrVsXBw8dQmRkFGJjY9C+fXt07NAB69avl7iDFs2bixvit99+k9MjLQnD770Xvr6+mP7RR2Jqb9mqlSiaNWvW3LgGRFdFo4YNhZr30OHDiI2JgX9AgIAJRxV7AYSWLVqgUyeetrciJztblDABF+M2Dhw4IIBLr2INQCAY4BweDgvDsKFDsXnLFrRo0QL79u1HmzatsWfPHrEI5OTkwsvLU0Ag5y81NU2GTUsPTdtUaAWscS6lS2H8hAn44osvLHo15WIoFJelAEHRPefLzsUln83RVFFBioXSUTEIlscgVKtWHfXq1oefvz8OHtyPkydpRXUsOOAMFhuAYNEur6EyYxLat2t/4+52YmKSuCeKstgLIDjynawBCDePjwqe8QYEL+YK57BsWVdkZmbIx3HzrRUCPQZjWsrCpgCCdQDBx9dLAoiNlaysa7hy+aq5KRVTKd2FDDS2ppi65si1wDgVjsWaotVfbI7umUHBmZlZAnhNFVvzIPj6+Qjds7Fy7dp1XI4vjBGxRCZa8yDwm6wQFCAB2IYK8wsQ6GuhArdXHgQCOh5STOXQIIixRy4ErWvqdtkxzopucQbRW+MasGSuTdW9awGCXgLSsx0FEPSUpnVtKYBgHUDgidmlTGmjdM+ZGZminM0VWwFCmTIuRpMDESBkZ+dYfWtH62bO77h06VJGx5Gbk4vsnByz4NVWgCBz4lKaXMYGxX4t65rVYMkSgODu4WYCIOTKGLI1rA17AQQKh3IyBmK4bgim7FG0ril79K1Hmwog6CFFjW0ogKBRUHaspgCCdQBBrymxFSDoNQ5D7Th6M7cVINhTFloBgp5jsCdA0HOclrTl6DVlydi01FUAQYuUdKqjAIJOgrShGQUQFEAwtnwcvZkrgHDrTCiAYMPGZqdHjdI9V6hQvkiCIuz0nsWiWfrrCjIcaslbXywGfdsgGBeQb8o1b04unuMvLTnyHTl++j8538VtzqmgOJ+81eOoQtM8+7WXSdeW92CgNONdzHEo2NLHzc9yP2BALrOGFrdSFGuWsuB9fXvEAhSVfCUxnxX5B4pqvLf3y3ga5qG5g+65fPn8pCiq6CeB/A3BVZQT7/WXxEITMRcNbxmUxMJNiArAkWubGUJ5bbO4zTkDRjmfTEDmqMIARfZLRVzcCpPMWBs8ac27cD9gMFpqqvmAXWvat+WZolizlEVGBoMFTQd32vJejn7W0WtK7/crVaq0YYDg4+Mlk6WKfhJQLgb9ZGltS8rFUCg5S645Wivv259TMQiFElEuhltXh3Ix6PWV6deOikHQT5ZmW1IAwayI7F5BAQQFEIwtMhWDUCgZFaSoz1bk6DWlz6gLW1EAQW+JmmhPAQQHCttIVwogWAcQmH+grInkQCTiunIl0ewE22pBcHd3NdlHdrb17i+tmznjKHjd0lTh1T5750Hw8vY0OQ76jbXkpjD0HloBgtAQB/ialAWvwKammrdG28uCwCuOjP0ychtUxp6RkWX2WqrZxW2ggtY1ZU3bjnhGAQRHSPmfPhRAsE3YlJ+t/kkFEKwDCEy1bCiT4sSJT+Hnn7+XQCyVarlQtiqTYqEsikMmxXyAYDhfBEeanp5hFtBZs3vpBRC49419YDxq16mDr7/6HJeiHcMhVGwBQs8ePeDl7Y1FixbJvIwZMwYU9sKFC4RroKAw1e4777yD+PhbiWMKfl+xYkVMfOwxTH3rLaPzy8XDwDVjJBjWLAxDz9gLIAwcOFAyhRXIin37+vjIpp2pc4S6NZkUmSL722++wZw5c3Ds+HGMGzsWH3/yCerXb4B2bdsgICBAUkKzkM2xVetWiIqKwvLlyyVNNAPbODe9e/XCvv0HMHz4cGH5bNigPh4cP96i6VEAQT+A8MzTz2P58mU4F3FWgJsCCAogGPoYiwNA4G0dU6U4AwQG9T4w5kGcOHkcXTp3w9x5vwgDriNKkQIEKo5BAwfKNavt27cjKTkZBQqIjI3kwd62bRsOhx3GgAEDJbXukiWLERQUjEaNGmHjxg2YNXMmNmzYgL+Wr8C5c2cxbNgwuUK1fPlfUm/s2LGoVbMGHps48YY8KfAGDRrC28tLWAN79uwlxEZbt+rLfHj7BNoLIDRt0kTkQUCQk5uLgwcPYewDD2Dv3j1Yv369MCjqVawBCD4+PlizerVc56LCp3L/e8MGfPjhh6hevTr69ukj/BHk1wgIKC9Z6gjYypcvL9fA+HHv27dXTgCTn3kGJGz6v+kf4ZOPP1JsjjZMrCVBirdbEJ5+6nmsXPUnzp49c8OqowCCAggKINwqAVstCLxFMGb0WJwOP4XQ0Ho4cfwYDhzYhywH3TAsUoAQUrUqpk2bhunTp+Oee+7BtzNmCCjIyszAo48+isOHD2Pvvv2iVHr16gknJ2dRIo8+8jBWrFyJ81FR+OGHH/DM5Mn48ssv8eKLL8nsUFFSCb3+2qt4++138Mabb2D06NE3Zq5ixUqifOrVqwtPT08cPXpMrhqxP3sWewEEnqgffeQR/DR7Nny8vXHy1Cn07t0bK/6he7aUr8CUDKwBCFTstWvXxu/z58sVz7CwMDz73HNo3bo1JowfL74/+qa3bduOI0ePooxLaSQkXEW79u2Erprzw2txtCQ88vBDIK8GialmfjdDAQQbFqwlAMHP31e+F1I8Pzj2EaxeswJnzp6+xeWjAIICCAog6AcQCA5GjRqDiIhzqFmjJk6Hh2P//r1GrwhTvzRo0NjAFOT9w44cZfFuUaQAgSfB/33wAV57/XWhJ16wYAFCQqohLTUFjz32GPbu3YvVa9ZKghkqQZ78582bKy9Lamj6+SZNmohxDz6IeXPn4rXX30BSUpJsWrzb/eH/PsDLr7yCae+9h9FjxtwQTv/+/dGrVy/ExsaKVWL37j0i9CNHjlgsQEsesBdAuH/kSEyaNAkzZsyQ+/ZR58/jnmHDsPwfgGDJGM3VtQYgEIR99NHHWLJ4Edzc3dGlc2e8MGUKQkJC4FmuHGrWrImqISHYuHETgoKCsH//PpnzLl26CsFWVNT5G3TPzZs3l595e/tg9k8/KoBgbsJM/N4SgEALAv2f48ZOwKLFf+DkyeN3BHUpgKAAggII+gEEWg6CgiqKBXXb9i3Ys2eX2aRapvgmrDkoFi1ACAnB4sWLRanTP3369Gn897//lb9TU1PRoEEDEc5nn32GwMBAEFH9Nv83PPvsc+jRozsefvhhvP3WW3jyqacw59dfMWDgQKxauVIiVrv36IEJ4yfg0UcfwcGDB/HIo4/emDnSSk+ZMkUU06zvv0cpZ2cxcc+dO9eG7db8o/YCCCNHjMDEiRPx3XffSQIjxmj07NUL8XFxWLBwIRITzUeXmx99fg1LAQJBXe/efXAtKxPNmjVHjZo1UcbFRaw+5cp5oEJgIGrWqoVXXn4ZCxcuwpKlS+Hm6pof9BZ96Z8YBBcBPmXK5LsbaJGgxWf5X3+hX//+Wocu9VQMQqG4LAUIiu45X3aK7rlwDTk5OyE4ONDkN6hiECyne65btz6qV6+B1q3aYNfundiwYZ1DM54WTGiRAoSqVauKgp/w0EMWbfKWVvb398ewoUPhUa6cPHr8+AmsWbPa0mZsrm8vgGDzwCxowFKAYKhp0j1zTgqCTQMDK8DNzRWRkZG3VHd1dYOXl6cASMap3HyLoVLFirgUHW3x1SQFEOwDEHg6ib5kfiO09ZqjKbpnvhkZJUm1bE3R6i8uPgDBx+TVU6Ysjok2PyeGZGXJNcfgimYAQmo6kpLMZ4u01zXHsmXLCKgrSbcYGIvFAxXdC6dPn7JmOevyTJECBF3eoAQ1ogBC0U+WAgjWAQQv73IC4oxtslQAGenmOQVsBQgeHm7GaZYlBThTWudYtdC0AgQG0TJ41titOcbZcBzmOAVszaTIPAhubhyH4et7zD2QmmJdGm1LAALzIFAmhgrnIjU1DZkZ5kGbvQAC5UNq7FKlnI2uCy15GqxZVFrXlDVtO+IZBRAcIeV/+lAAwYHCNtKVAgjWAQS9Zs5WgKDXOAy14+jN3FaAYE9ZaAUIeo7BXgBBzzFa2paj15Sl4zNXXwEEcxLS8fcKIOgoTCubUgBBAQRjS8fRm7kCCLfOhAIIVm5qdnzMKEDw9/dFVpZ5k6Edx3bXNU1TF+k/GXDHPyWxkOUtNzenSAJm9JAX4xqAPLPRwHr0VdAGWerIHlnc5pwBpNwAHMlgyIReDI4khWxxKz4+vkhMvOqwYXE/4Ek9KUm/IGK9Bl8Ua5ayYPCxrdlS9ZKBHu04ek3pMeab2+DVcpI23kL3zI0jOLiCKAJV9JSAk1zV5AeQl1cyKU15k4SLpaSuDWfnfF+pI8dPmRXHOaeC4tgcSUPNUzPzmdg7a6k1Xy03w+vX9UsqZn4MTnLjypHyNz+m/BpFsWYJHBm/QQB/txTHryl9Jceg37S01FsBAj9iRfesr6DZmnIx6C9TS1tULoZCiVlyzdFSORurr2IQCiWjXAy3rhLlYtDrK9OvHRWDoJ8szbakAIJZEdm9ggIICiAYW2QqBqFQMipIUZ+tyNFrSp9RF7aiAILeEjXRngIIDhS2ka4UQLAOIJDeuJSRq2zSYh5TnJuPWbLVgsD77KYKrxYyC6c1Retm7uyc7yo0VXi9z1zmOlstCLzf72zi6p7WOTH0HloBAm9YurqZpuDOyc6Ra5/mir0sCJRzvmvL+Ai0zJe58Rv6vdY1ZU3bjnhGAQRHSPmfPhRAuFPY9IOb20gLnrKkrrFpVQDBOoBgjO65Zcs2OHhwv/juVaKkQtkquudCWRR1JkUtiZLS0jLsEhypF0Dg3tekcVP4+wdg956dSEkxn3hKD9VWYgACyZcYMHHzzQpTCoOJTAb0749FixcblFNBchGtykkPYdsLINStW1dONEePHr0xzILbEvlBP/oVSzMpUs6k3A7w9wchPMeZk50t9NQVgoKElpq8GalpacKxcenSJdSoXkPSQ584eUIi/wsCO+vUqYMLFy6iYcMGknY5qEIg/liwwKKXUwBBP4DQvl1HlC9fQVgdmeJbcTEogGDoYyxqgODqykyKJZfumXto8+YtZV9s06YdPv/8E0SdvzXrrEWboAWViwVAoPIPDgpCXHw8SA0cFxeHypUry1W6qKgokPWRDIzhZ8KFo4EcCvx5rVq1xHREFkYqSbI+hoeHSxrfxo0b4z8vvYS+/frdEAcVTYUKFcBUv2yHZFFsh0rJEcVeAKFH9+6oVLkyDh44gNy8PHmfjh064Oy5czhx/DiyrTS5GpKJNQCBip1sk5ynMmXLIikxEckpKWjRooUQN9EkvGfvXoSFHZH0yxWDg3E1MVH+zdsejAQ+fz5KGCFr1KiBLp27YPuOHXjs0UeEc8KSogCCPgChY4fOcppZs3aVXINiUQBBAQQFEG6VgK0WBN74admiFapUqSL8NGXLumLjpr8ddh23WACE2rVqYfCQIVi/fj1atmiJTZs3oV7desJ57eXphYSEK3B1c8Oxo8fE50YAQEAhiuPCeSQkJMDL0xMB5ctj9erVePrpp0XZvPyfWwGCl5cXqKwIQnx9fXE5/jJOnjwhOf0dUewFELp3747BgwaJknUt64rDYWG4b/i9Ik/+KUqAQLl6e3vj59mz8f0PPwitc3R0jFA+V6pUCc2aNUPlypUQERGBLVu2Sl13dzfJU9CkSVMBcGTdvHDhvKSuff6550CCmF9/naPonm1ctJbcYvDz80HFShXF2tO6VVt4enlh06a/5QpUQVEAQQEEBRD0AwjUFy1atEalipVwPfs6SjmXwt69uxETG23QHUJLQ3BwxTumIE/ig9KtAhXFAiA0bdoUkyZOxG/z5wsN8+/zf0dA+QBR4mPGjMEPP/yACxcu4MqVK+jZowdOnT4NUjZv2LARmzdvQvfuPXD8+DGxDuzevRuzZs4UOuHf5s27xYJQr1499OjeAxcvXURonVBhciS/vaOKvQDCzXTPpV1ccO7cOQwcMKDY0D0TmP3w/ff49ddfxbUQHRMj80Q3QWhoHXTt0hXRMdFYsmSJWIoIENLTM9C5cyfs3LkTp0+H36B77t2rl1iSkpNT8MP3sxTdsw2L11KAEFq3Lho3aiJuH9LP3p5gSQEEBRAUQNAPILRu3RZtWrdFYlIiEq9exf4D+xAdfclorAQBQkCAIeKs/MRw1iREKxYAISQkBI8++qhYBq4mJEjcwKBBgxATHYPo6GgEVwyGj7c3li5bBipD+rTpY//kk0/Rrn07OXkOv/deMBjlxZdewueffSZBHDRh3+xiaN26NV595RXEx8fj+PHjQgPNlBwbNmywYZvV/qi9AcK3M2bg+rVriDp/XuIvGJOwfMUKcb3oVSx1MbBfWg3GPzgezZo1xbFjx8TKQ3ptugwYdzBkyBCkp6UJYCNAYEj8taxrcHN3k/nPD/jKp3sm7TeBIussWrgQffr2tejVlIvBehcDQXtonbo4czbcYPY/BRAUQFAAQR+AEBQUjHbtOqB+vQaIjIrAxo1/i+vYkQne+CbFAiAwoLBWzVoIqRaCSxcvIj0jA82aNsPhsMM4ffo0QkNDBTxQuQQHB4uPmvEJ+w8cAK0Pe/bsQbt27VDGxQWrVq9Gy5YtRZGw3Mx0lpOTK4qGP4uKjMT17GzJZHbqlGPoNO0FEAiwqGwpK2bsIyAICgpCVmamgAUGkOlVLAUIlLW3tw94TY7uBM4vx8Sf+fr6IDMjU8ZcpmwZnDp1WqwHlBOvHTHbHt1IRL9MVcwYkoL5pEupSdOm+Pvvvy16NQUQrAcIbu6mr7MpgKAAggII+gCEypWroGHDxgIIjhwJQ2xsjNXXdy3aIG+rXCwAwu0vwBMnFTcDCW0pNKFWr17tRhOMpr106aItTdr0rL0Agk2DsvBhSwECm2dgzc23T6jo6WogMOBcJycn3zKKgpslrMd1QJM26958a4UWJAbtWFoUQLAOIDCzqrsHeSwMF62R6rbmQShXzt0ovTHXTVaW9TwnWgPKuCZJH2zsXj2DbrMyryEn13Q6dVvzIPDqKXMQGBtHRkYWriZYx/OgPQ+CEyoEBQioN1R4KCPlNNeHuWKvPAjcR3iTwdgYOS7SPdvjRpvWNXW7bHhoJo+D3PBKdcyVRkPzUywBgrmFVFJ//28FCMVpvhRAsA4gUCmWYlIeI8lmsq9ng8rAXLEVIORbkQz3wmCsfM4L63L5a93MCVRNJd7Jy81Dbh7HYVoatgKE0i6lUYqK2Yg8mKCIljhrilaAwLbLlHUxDtpy8yRIOlfD2rAXQOAYuXZvtibfLhNr5WROtlrXlLl2iur3CiA4UPIKIDhQ2Ea6UgDBOoCg18zZChD0Goehdhy9mdsKEOwpC0sAgl7jsCdA0GuMlrbj6DVl6fjM1VcAwZyEdPy9Agg6CtPKphRAUADB2NJx9GauAMKtM6EAgpWbmh0fMwgQaMarWDGoxFIS21FeNjadb5qkCbSk0j3njx8ldvxMPMLiSPmTYrp4znn+enRkZDTlT1OvI/vU+tGS4tixNNT/ZBbN0Tfbqdb3NVWvKNYs+6SL6G6ie3b8mtJj9gvbyMq6ZpjumYlRMjMtDwLTd3h3V2vcGInIeKvAsbzz+smR45cgrCzzxDz69apfS25u7rIBWRPgaO0oPD09kZmZVezmnJsXLUNTW1sAACAASURBVCrJyUnWvprFzzH4isHDNydYsrgROz3AEyyTsjmqcD9gINrVqwmO6lJzPwxG5s0hPW9AmeucCeyY36Q4gkdzYzf2e0evKWvHaew5BpgzyRIPOE5VQypLWA1PFYxaLkihqnen/9b2lIuh6GdeuRgK58CSREl6zZyKQSiUpHIx3LqqlItBr69Mv3ZUDIJ+sjTbkgIIZkVk9woKICiAYGyRqRiEQsmoIEV9tiJHryl9Rl3YigIIekvURHsKIDhQ2Ea6UgDBOoBgjO65IDcFfccx0ebTlttqQfD09DC5iMj4SneONUXrZu7iUlryDxgtkvue2T9NxxbYakHw9/dFWdcyxoeRl6eJgttQA1oBAnlRgoMNpfctbFVrjgx7WRCYc6VMmdImrzkWd7rnfGk6yRVfa6/xWvNNlDiAULAh0ZfJBDr5wV95knjHkf4ya4StJ0BgICnbowxMFcqFGxXrs7A+n+O9dhbKjHVYKEdz7VmTKKlgfLdTbHNMpGEt+DljG9g/x5bHxEjOzjLugnEVjJv1WIfvZW68t8tGK0BgXxwb5VOwvtgW++T/+TsqRXNKgM+QgIrZIJn9szgVS1wMhgAC182LU17DJ59+iPT0tH8Xm+NtAIHrpUnjZriScBlRUZHISFcAoWCtFzVAKOl0z5QjYwGefOIZIbB7c+qriIyMcMhWUuIAQpUqVSWz1Afvv48vv/oKCQlXJQ3lG2+8gWnTpolC4aZOJVLcijmAkB/FmyPZBfkOBEFULAVc5lRG3JT5bp07dUL79u3xwf8+lOC3/EQ2pf5RmE7gKYf13nv3Xfw6Zw66de0q7ZCvoXWrVujYKZ9m+dNPP8W7774rufVjYmIwe/ZseHp64cqVywbFZw1A4HuTYptBcaT2TklORlp6Gjp27IjXXn1V+uF7bdu+Hd999x3uGz4ckVFRklKbKbQpi3ffew9NGjfBuAfHYcf27Rg4cCAWL16C6R9Nt2iatQKE9u3a4eGHH8bbb7+DCxcv4L33piExMRGrV61ETGwsJk6cJB/pvLlzcc0MSLsbAQI3jsnPvIBvv/0CVxOvyhz8q1It3wQQ+O01qN8ISclJiIg4K7JQAKHws1QAIc6iPer2ytwzx417CDu2b0Wbtu2xdOkiIW1yRClxAOGj6dMRERklipAMjyR1ev311/D0U09hxnffoU+fvkJStGvXTkfIz6I+TAEE2WQaNMSxY0cxdOgwYTskjfPatWvQulVrAUUHDx1Cj+7dhcuAIGLc2HH4dc6vUrdmjRpCZU1eitIuZdCkSWNERkbh8OHDaFC/Hk6cOIHuPXpg7Zo1+PGnnzDxscfg7uEhqTwXLliAe4cPFyVduXJlPD5pEiZOmqQLQKB1IDCwAh54YAxWrlwFXx8f3D/qfnz22Wdo17YtunTpIidryoZAYPOWLWjerLmY0vbu2yeggnPN+axUsSIef/xx1KxZE5GRkWjQoAFatmpl0RxoBQhkBCXx1+/z5wsh1H/+8zK++upL5GRng0CuQlCQgCiCBnMmv7sCIPh5w9OznFhNCBIfmvAY5sydjfj4ws3v3wQQ3D14G4bXFJ0RWqce0jPScfZs+I21qACCAgiUgFa3leFNjDw23rhv+EgcORqGevUaYM/unThx4jiyjVyNLbAG396eVmvn7c+VSIBAtseHH3oI0z/6SGiNZ86aheeefRZt2rTB4CFD8P5//4vnX3jBIsXhiMrmLAh//P47Pvjf/3Dx4iX06tUTy5cvx5xff8W+ffvw9jvvwN8/QHgLxILQuZMo2OMnTqBVy5Yig6FDhiAiMlJO6WFhYejXty+WLF0q/65UqRLeefttocEm7TLbfeCBB3D/qFGYO2cO/lq+Ap06dcT06dN1BQgFcuVCf+zRR4Wp8+rVRLlORgA0efJk7Nu3Xz6Ebdu24e+/1+P5554TNs41a9eiatUQxMXlK6GqVasIBTitIVWqVJGrir1697Zo6rQCBFpjunTugtS0NOzbtxfzf/sNa9eulb7Cz5xBr549hYly5syZwkxpqtwNAMHP3wf169cXgNC3z0AsXbbwjlPMvwkglA8sDw+PcvD18RMLXviZ07csAQUQFECwFSAwJmP4vSNw5kw4goMrIizsMI4eCzPq1qR+CQ2tf8dWxANMcnKiVTxEJQ4gvP3WW6JQ7r9/JN6bNg0jR4zA5198gcnPPIMaNWti/vzfkZmRgbXr8jfz4lTMAYRnJ09Gr169MWToEGzetAmffPopHnn4YbEK8F1pJeA9VCpPWgvatG4tymrc2LHYs3cvqoWEYOWqVYiOjsGFC+fRt29frF+/HrGxsfjxhx9ETlu3bkX//gNk0TWoX18otO+7bwTOn48SKm1aYfS0IFD+fG/Sl7K/fv374YvPP0d0TAx69+qN555/DteuXZeT2Irly4WKe8SIEVi1ahUWLFyIRg0bYezYsZj1/Sykp6WjZq1a8oHUrFkD0ZcuifvEkqIVIJAqnHIlBfWRI0fQunUbIC8XEyZMwKeffQ5n5/wkNwyIO33aNBvo3QAQGINAttXBg4ZhzdqV4me/vfybAIJHOQ9UC6kha/t0+Mk7ZKEAggIItgAEWoiHDRuOKpWrimV10+YNOHLksMUxV5bsjYbqljiA0LlzF7Rs0UIUxP9Nn46HHnpIzNU8PS9YuAiffPyR+K/ffvttW2Wj+/PmAAIVDsc9depUfPbppxKDkJSUJO4BKioChFdffRUHDx7E9h07UK9ePVy8eBGhderIya5Vq1aiMHmypaIl7XNwUDCCg4MwePBgePv44LnnnoOrqxv+O+09XL58GW+8+aYo4IYNG+KPPxbg8uV43HvPPXj/gw8Mvr81MQi0aAwcOAiZGek4cvSoAJHf/1iAtm3boEJgIEq7uOS7GLKysGXLFtQJDRXXw6xZs8T9QKATFxeP2rVrYcmSpQiqEIgVK1di2NCh+G3+fIvmSStA+Pijj+Dj6yttP/LII+D/WV5/4034+HjLPB0/flwsLubK3QIQFN1z/kybvcWgYhBu+SRUDILlMQg1a9ZGndp1UL16Dezbvxf79+8rkkRrJQ4gmNuMi/PvzQEEe4z90UcfldP4+fPnNTXPQEYGFBKYGCqWAgTGIHh5eiLpJkpnomMqTVo2WPIZ+pxumM4qVKggwCA/42Q+fS8XKrM3FgSfsn5+yl7zDII3v4dWgKBJWBor3Q0AwcfXC+7uxumeeb0wPs58FkJ7XnNkCnCuFaaHtaZo9ReTRdHNxDVHmnR5zZFsiqaKrdcc6fYh7bSxQktbXKz5OTH0vOZrjk5OCAoub5KCm1TKKcmpZqfEftccXVCmjHHGSQ6MICY31zoWUFMvpnVN3d6Gt7cPateug5iYSxJrV1RFAQQHSr4oAILer2cpQNC7f1vbUwChUIKWXHN093BD2bJleBPb4BRwg9WimG0FCFSIxmh7CwKxtNBOG3oJrZs53WEuJhQOgQEBk7ngVVsBgoeHez7VspE5ycjMlNsU1hRLAIKXdzmUcs6/Rn17ycnNQUa6tpTN9gIIXC8ECJS34UJAZ58ryFrXlDVz5IhnFEBwhJT/6UMBBAcK20hXCiBYBxD0mjlbAYJe47AFIOg1BlsBgl7jMNSOVoCg5xjsBRD0HKOlbSmAYKnE/sX1FUAo+slXAEEBBGOr0NGbuQIIt86EAghFvz/ePgIjdM/OKF8+oEiCIoqfiPQbUb6pq6z42h1LK6vfOzBwkqZcSzMY6jcC21qi/Mnm6MismwwKpbyK25wznwPn05GkbHRrMOakOLKB8tqiI1kmC9hdHdmn1q+HazY7+7qmTKFa2zRXL18ZZTiUit3cmGz9PV2yzGFTUgvp2Zkl9RY2R/rYAgPLl1glUFwno8AXxkC7bDMBTMX1HZiIIy+PAKH4cdhrkRl9kQXBbFrq61GHSpjgoLjNOb9zzicD6hxV8jN+OmuKV3DUmAr6YXBuPrWtY3rmfuDm5ia3jYpbKYo1S1kwONnSwOPiJrubx0OLJZPRleRyB0BQdM/2mU7lYrCPXC1pVbkYCqVlSZCiJTI2VVfFIBRKR7kYbl0pysWg11emXzsqSFE/WZptSQEEsyKyewUFEBRAMLbIVAxCoWRUkKI+W5Gj15Q+oy5sRQEEvSVqoj0FEBwobCNdKYBgHUBgDgS6Z4yVXKZzTTLva7XVgmDq3j/Hls8Iap37S+tmLtccXYzLguNgdlBzpnJbLQge5dzh8g8rq6F5od84ScOcGHpWK0Cgm8Tb29Pkh83rr1rcWPayIJQuXepGrhXDA81DVlY+M7DeReua0rtfvdpTAEEvSWpoRwEEDUKycxUFEKwDCIbontnSPcNGYPmKpcI6Gn3JfMY4WwGCp6eHyRVCcMD019YUrZu5ZFI0kaCIfVMhmos5sRUg+Pv7oqxrPlW7MYCgZU5sAgjOTggODjQp7qLOpMj8HZwzY/kzOPi0tAyzgM6ea8pc21wr/foNRNUqVfHHgvmS8dYRpUQDBGabYoTof156CZ99/nmxDwbREyA0atQItWvXxqJFi0yuE6YJXr16NcgtwBQ3TFFctWpVtGnTVj6IBQv+wIgRI6WNq1cTsHLlyptoo+9sWs9ESXVDQxFat65wTVSrVl0ClCR1dGgdSactJ6DkZASWD8TceXOFwdHWohUgVKtWDcPvvRdff/0NMjIzMGbMAxK0u3fPbiFnGjBgoJBIkVyKt1JMlbshk6IhgHD/yAdw5mw49u/fK0GY/yYuBgUQ8le8UwkACK6uBAimLT7p6RmwNsGWqW9fK+g01Qb1xoD+g4QxtGOHzvjhh5k4fyHK1q1Q0/PFHiAw6rlx48bCYnjl8mUwOxgnmwj91Vdewd69e/Dc889jxrczcOLkSRw5EoYmTZoiICAA27ZtRadOncDJ57+LupgCCLz6RRMb+RG6d++GAwcOCrviihUr0KxpM4n8JnMjGStjY2LgHxCAEfeNwDfffiPcDORjCAwMlDrsh1TIERERwuzI6OC01FQBFKtWr8abb7yB2T//IgCBvOI//vgjXnvtNVHQlPeggQPx6WefGRSXngCha5cumDJlCi5FR2Pv3r1YvHixzBs5JaqFVENuXq68R3xcPKZ/NB1RUbZ/FFoBAmnFFyxYgHHjxuHJp57CCy9MweLFiwQUEBDUr98AsbExAmjMmZLvRoBw//1jcfbMaRw4yBzx12WtKIBQ+MkoC0KhLIraglCSAQKvIueDgzRh870cH49du3YgLd0xNyOKPUDgSY73kzt27CBmTFIg0z8WFxeL72bMEMrnae+9h2efex6vvPwfTHjoITz00MNYv34dHnhgLIKDgjD1ramieIu6mAIINH+R+Of9999HhQpB8PPzE3pOMivGxcfjp59+kutXVPi8NtOkSWP06N4du3bthrePN9atW4eBAwfi3LlzwnNARUYypzVr1ghxE5/5+quv8PLLL2PhwoXC7Ni/Xz9MefFF/PXnX/j6m29Qs2ZNLF/+l+5sjobkXqtWLbz44ovIy83FyZOnhIhp67Zt8m9eNRszZgyozMlMuW7dWqGs1iN3gVaAQGDCOWndujVmz56NJYsXY9683xATEy3X0vr06SMy/mn2bLm7fbdbEJj3n+sjMfEqBg0cJvTGhw8fuGVOFEBQAMHQd6AAgnnXmyG58dBIt0JmZgb8/fwRf/ky9u/bg6TkJIPxEtQvJHm6vVBvpKQkyYHG0lLsAQJPcB7uHqhRo4b4XX76abacnklg8e03X+P1N94Q+uAHxo7FTz/+iFGjx6Bdu3bYvXuXKNWszEyMHjPGUrnYpb45FwPfgyf45194Ab/+8qswBn744f/kdD1t2jRUqVIF4WfOSqKf7t26iTXhdHg4HhgzRlwHtWrWwu49u5GYmCjWg1H334/FS5bg8OHDAjz++vNP7Nq9G0899TTmzp2Dnj16YNHixQKotm/fjpdf/g8++OADhwAE3jkfMngIGjSoL+93zz33iPUj4lwEUlJThP+cJ3N3Nzf8+def8j56FK0AwdPTC4888rBYV0hc1bZtO3HB0Pryvw//D8nJSWKZ4RjJtnm3AwRfP2+EhoaiX9+BOHBgHw4e2n8HYFMAQQEEBRBulYAtLoYBAwYLoyMtlsePH8NegoOkRKPBlPl5NdwNTEGexMNcu2Z5bE6xBwj0A48ePVrM55999rlsUtWrVxM6Yp7iqDQ7d+qEAQMHYuZ332HEyJH4/vvvxY/+ySef4MUpU0oMQKhYsSK++upr3HffcGzcsEEUPd0p9NG/OXWqmNvffust7N6zR37WpnVrhJ85gw7t2yM1NRWdO3eWWAyyJBJAEWzExMSiaZPGeP3118UUTCAVFBQsdM985rGJE/HCCy+gXt26WLlqNY4ePeIQgMBV3K1bNwE6e/buFRcJlXF2Tg4aNmyEwPLlJYNXlapVsXbtWocDBIJNWjloebp3+HABn4xx/vDDD0UxEkgdO3oU702bJpatux4g+HrDy9sTjPshODJkzVEAQQEEBRD0AQg1atRE/foN0bxZC4SFHcKGjevloGKPmxam9q5iDxB40qRZnQo/KTEJZV3LytWeq4mJkiaWf6hEae719/cXczrBBNEUN3dfX99i4V7gJJizIHDM9MFz3KQ85v95bYubMcECs97xHamQaNbmu1Ppl2V2Q0BOtFxEfIZ/SF/62quviBWBcmH/BA/8u3z58lKHP6dLgm0xzoNyJoAIDz9tcN3oGYMQFBQkLiAG/XGOjx49Kn0yFoNWEpry2V9KSopuqXm1WhAo/wL2t+joaJkPFsqLMuI8cV6uXDFPp3s3xiAYWhwKICiAoACCPgCBbuZmzVqIW+DEiWOy5zsaHPBNij1A0MOsXFzaMAcQ7DFOKl6CCYIBLYWghH+MBd7pCRAoD/Yleb7/AUMcY8F1pIKf6/lhaAUIWmSltc7dABB8fLzg5u5q9KoY79unpZpPGWzrNcdy5dxN0j3zPru5WyXG5k2rOZiWOQa+Gbs2x/45DnPBq7Zec/Tx9Yabm3H669TUdE25KQzJw5I8CIEV/AU0Gyo0baekpCEj3XScTsHBgCZ0rXuV1u8v3/TuKoHexgrHaI+idU3d3jfXBtdZwWHPHmPT0qYCCFqkpFOdogAIOg39RjN6AgS9x6alPQUQCqVkSaplU3fI2aJWEGcrQHDiXV25sGuo5NnEo2DJZm5qHFplYStAMDcnlszL7dLUChBuBvTGvj+t8rBXoqSCcRmXl23rxtS+Y8ma0rJ/ObqOAggOlLgCCA4UtpGuFECwDiDoNXO2AgS9xmGoHUdv5rYCBHvKwhKAoNc47A0Q9BqnJe04ek1ZMjYtdY0CBCZGcSQNrJbBlvQ63BAocPqurYkoLQ7vT5cFzYa8elMSC+VfEN/gqPFzs6W89LimqeeYacKkRYhXFx1VCBBouSiOFLgBAeUdlqEu/+TtLNeZr1wp+ivYd1oQvCQjpSP3KV9fPwmA1dvF4Ki1bagfR68pvd+VtyLyGU7z4FQ1pLIko6Y/qVKlYM1mQ70HdTe3d7N/vSS+pxq/5bNWXGVmLt7E8jc1/0RxlQVHTgBvLm7A/BtaVqMo+tQywqKYJ8qCVPJ2oETQ8sp2qVNc51fryzI4Mi0t9VaAwJdiUJKyIGgVo7Z6ysWgTU72rKVcDIXStSQGQa85US6GQkkqF8Otq0q5GPT6yvRrR8Ug6CdLsy0pgGBWRHavoACCAgjGFpmj/cUKICiAYPcNz8YOFECwUYCWPK4AgiXSsk9dBRCsAwh0OxbkhTA8M3maaJZttSCYuqrGcdFXyvwf1hStAIHmd2dnYzcp8nvmGMxF79sKEEhjzDgG40XbnBh63pIgRXNESHTbaIkrsJcFocCVln/zxHCxB1ETe9K6pqxZr454RgEER0j5nz4UQHCgsI10pQCCdQDBGN1zSNVquHDxvOQe0EItbCtAUHTPhfOn6J617Sd3A90zQU6lSpWFnyYyMsJs9lZtkjFf664ACK5lyyLr2jWjiL0g6URRR5FrAQgFiYOMTd3N71I+IADuHh6SaZCZEZnlj0ElzPLHjZhMg8wkyWyUjPw5FxEBP19f4bI4fvy4dEGGR9nco6NRp3ZtHDp82OSqsSUPAqPmeRIlayQLx0YCIDmROTnhSkICzp8/fyPan1kjmU2RiZ54GiOrJz8QHgQKzog7duwwv8pvqmEKINSpU0fkd+nSJUnhzZMRyaSYzppy4kmIGTtZp3LlyjIu/p/vwWh0Zrvk/28vd0OiJEMAoVat2ujUqRvmzfs5X24XY83Ohb0BAtdyRoblOectOe25uDBRUlmT76rYHAvFo8iarCNrKpAg98dq1aqja5fuaNmyFf734X8RFRVp9lvTo0KxBgjcWH28vSUVLzcgKkGmA+YmUEBjHBcXj969euLAgQOIiY1D9erVcfr0KSH5cXN3F0VJJUNWPpICaUmNq4dgDbWhBSDUrlVL+AhITkQmS75vYiJzcOeKIg0sH4i69eph//59qFu3LqpXq4bzFy4Kl8HBQwcFDDCPNxXqhg1/Y/ToMcLkyAxlS5YsweDBg+Hj44Njx45hy5YtGDt2HFJSkrF582ahNv74449NmkatAQiurm4yL1SeVKTe3l44efKkcEg88cQTIiqCB6Za/uGHH4WAiubAZs2aC6Ml1wGBwxuvv46atWohPi4OzZo1Q2RkJO4bMcKi6TIGEJo0aYJOHTsiOTkFi5csxtSpU3H06DFJ8fzbb7/hzTen4sSJ49i3bx+ysq6hbdu2cj2N78FnaR49efIEdu/e/a8ACKGh9dCubQcsWDj/xpVFBRAKp14BBAUQLAGdxjYx7vk1a9RC27btcf58lFgR1qxd5bDruMUWIFDRkSynYnAwTp8+DS9vb1SqWAk5uTlIuHIF165dR7Xq1bFly2ZhPnz33XeELzs3j8xV13Hu7Dm4urkhKKgCzkdFCTPia6+/jlOnTlmkUPSsrAUgDBkyREiUaA0gVwF9jGSm7NixYz7PQnYOJjw0Ad9+84349VzKlBESp7NnzwrPwqCBAxETG4vIiAicOHlSWCAXLVokp/adO3eic+cuKOXshDZt2+Kdd95Br1695MR84sRJ0KdZo3p1hB05YvS1rQEIvN/ct28fxETHCEDr2bMnfps/Hx07tMeAAQPkXckzceVKApYsXYJTp04Le2fNmjWwf/9+TJo4EfPmzQMZFvv164d169dh3Nix+Ouvv7B02TKLpsgYQPjm66+FETOkagjmzpuL+b/9hhdfekksFrRSTJ/+EWbNmilWAwIeEmsRxHCuGjVqhEOHDsm/CbzuSguCnzcCA8sLUK9Vqw6aNW2B5SuWCfAsKAogKIBg6GNUFgTrLAgEB/zWWjRvifjLcfD3C8CevbsRFRkhevD2wvo+Pn4GpiBP8lnwoGhpKbYAgSZeT09PUV5UiiNHjhA64GFDhyIyKgpz585DnTq1ERYWhgV//IFRo0dj8aJFGHbPvXjttVfx++9/CBgIDg4SmZDV8aGHH7ZUPrrW1wIQSJREgg4yUVK5N2/eAkeOhGHe3LnyrrN//hljRo/GgoUL0bxZM5w9dw69e/USlwFdCPXq1UdKcrJs5n/++ScGDhyEU6dOYvz48Zg0aRIuX0nAs89OFtDF3z/91FPiikhJSUXYkTBRvGQoNFasAQhsixYf0k/TErBt+3Zxi3Tv3h0vvfgSTp46JYp43bq1clonOCBwoQslKuo8OnbsgD//+kssKE8+8aRYiPj8uXMR+G7mdxbNkTGAMGPGDDn9kyHzrbfewrPPPou169bhmaefxpChQ/HW1LfEalO/fn38sWABevToIZasw4fD0KJFcwFgtPYsWbJUAOrN5W5wMfj5+YjlqmJwJTnFrP97DRISbiWqUgBBAQQFEG6VgC1BiqGhddGjey/ExMbI3nfw4AFERJw1GvBJ/VK5ctU7poDW5PT0VKus58UWINAUTZ9zcHCwuA/q1auHShUrwsvLSxThqlWrxARPE+9XX32F+fPni1KhL52bNrPD8bkqVaoCebmYPHkyfp0zR2iSi6poAQg0Vfft01tcBd4+pNZNxp/L/sSTTz4hloFdu3bhkUcewV9/LUdOdrYoy5YtW0p2uqTkJKSnZ8DHx1ssLzwR16kTCn8/P3Ts1BFT35yKDh06wM3dTWizaUEYOXKk+P+p7FavWYM2bdpg5cqVugIEug/oEqAFqEbNGjhy5Ii4e2gNGDVqFBhBzOh0vtsvv/wiwJDvT9BDOmjSLa9atRr9+vYVczaVMdfDkqVL8fXXX1s0ncYAwsMPPyxR+tVCQvDpZ5+hT+8+EulAgDblxSkY+8BY5CEP/n7+Qj/duEljmZuzZ8/JGg2pWgVRUVHYvGXrHdnn7gaAwBiE4IrBaNO6HfYf2Iv4+DtPRQogKICgAII+AIH6j+CAFoTLl+OxcdPfYiXOycm2aL+ztXKxBQh8sRYtWqBtmzbYtm0bMrOyJI7g6JEjSEi4KqjK18cH8Zcvi9mcQUM8Ufbo0R07duxETEwMoqMvif+awYlsh0pw46ZNtsrM6ue1AAQXlzJ47NFH8O2MGXj88cdFCdFFULkS3Su5Yiaikj9z5oxQPZdhIB0gP6OcCJi6du0qNMqrVq8WZUulf+HCRWzdugXDhg1DgL8/5sydJ+bhJx5/HKlpaVi4cCG6deuWDzxMLEJrLAgEdfTTcx6oRLt26Yo9e/eiSpXK/9/eeYBXVaRx/09Lg0AKaZQgnZDQi9KlKx1EAWFBURRxdz91RdHd1bWtCvgtrqsIKGIBpUkVBCkJSE3ondBCC4QkQEglAb7n/8YQArece+65Jzd8M8/DAyTnzpnzztyZ33nnnfcvMSZly5VD6VKlZWE9cPCgxF8wIJD9xRgSPg+3Gnr37iMUTe9Bp46d8O133zqs3GcNEBiXQWBhEOWSJUvEZozrWP3bb2Lrp59+Wvp93TDYgwAAIABJREFUzpw5KO/jg6HDhuHs2bOyzdGgQQQ6duyAPbt3i3fk7nK/AALVHG0VBQgKEBQgGAMINWo8gIYRkajg64s9e3bhxInjDs91uheqOz7o1oBgxAO6Ux1aAMGR9tIVz1MJcTt2OPIxi9dWqlhRAIFv5baKHkBgwGhmVqF2A08HcOAV7F/nn6+nxHT+vtqdaV4JCAQhxlsEBwcjNTVVvig8p83gSntnze9+FnXMsdAijmRS9POvCB8fb6tDg3n7U1MK4xGsXejKUwwcC4xN4h89Ras7OF/umTLLlu9CuKU97J2tdzYPgn8A5Z6tQxuDaVOS9elsaM2DwO9qSGhlqzkyaIv0a5lIT7e//+2qPAiMrfL09LSZu4LS2I7OJVrGmNYxdXddnB/pmaQnvDgD6xUgaOllg64xGhAMapZD1egBBIdu4OKLFSDoAwSeJS9brqxVoeXsnOvIy7Xv/nQWEHjE0JpsLyd4Lsp69RS0Tub8HtPTZAsQ2A57C46zgGCvT65fz9MtEKYdEABvb2+riy8TRhHYCPX2iqsAgfcl1NlKbqUXKu09k9YxZa+e4vq9AgQTLa8AwURjW7mVAgR9gGBUzzkLCEa1w1I9Zk/mzgKCK22hFRCMbIMrAcHIdjpSl9ljypG2ablWAYIWKxl0jQIEgwzpRDUKEBQgWBs+Zk/mChCK9oQCBCcmNhd91CIg0H0WGhqsKX+2i9p131ZLVxddoHrdoMVtGLY/35V77znc4m6blvtzbLOY2X7GXPB+7tbndNWzPxnjYVbhaRXm9tDicjarTQX34T51QZZPs+7N/B/FneHV0rNyK8eZ7Ro99qMtOBbtbc3oqbu4PlMcY8rIZ+X3NDMz416558qVA0z/shj5YO5YF/fAPD29ZHI0c1I20hbcb2QwIQOgSmKhi5vHFxlEZlah14InNHI17NGb1Sbeh7DE/mSCJ7MKFwEGjfE4rrsVnjZJS2PWUnNaRkDjKSOeVHK3Ur68j8QOmDlP0RZcjOwFd7qbrWy1h2OKCe5KaiEoMhMxoa1UeI1q8tWg68vPryKysjJL6nO5ZbvVFkPxd4vaYijsA0dOMRjVcyoGodCSaouh6KhSWwxGfcuMq0fFIBhnS7s1KUCwayKXX6AAQQGCtUGmYhAKLaOCFI2ZisweU8a0urAWBQhGW9RGfQoQTDS2lVspQNAHCBUrVoCXt3UFQx5nS76UareDnfUglC9vPRcDb56Xp3/7S+tknn+u3sPms2ZnX7cb5+KsB4FeXg/PclbbQbfwpST7fWKpAq2AwG2SoGBL+f8La83KzMa1a8WXB4ExQPnHY613GRVAXREjpHVM2f3iFNMFChBMNLwCBOvGtidzbVQ3KUDQBwiW5J5Z00v/ZzymTf9ctiNVJsU7FsWsbIEVW8VZQAgM9Ienl3VQISAkntcnFKQZEEqXQlhYsM3ndAexJm6n2QIExsS4IvbBKEDgWBnz7Fg0aNAQn3zyMc6eO2PUlGiznhIHCAz6oJQqg74KCgP/+H93j341AhAY5MVOi4qKRLOmTfHZ//5nsYMpjUyxISo4FhSmX066dMnum42tEaM3URIBgJ9lUFxS0kW5BdMZjx8/XpLvkPI3b9ki7WU6ZgpIMfK/fPkKkmo5Nna7CElVq1ZNrs3Ny5O006+//rpDXxQFCMYBwuvj/47Zc77DufNn5bunAEEBgqUvozsAAucMW8WdAYHBxM888xzi4mLxcKcumDfvRwUId3Zmy5atRPqZCoQUF1q1apWIMrVo3gzLf/kFo0c/g2tpV7F582bsP3BAdAsobNSmTVuEhIRgwYL5Di0irrrYWUCgpsGggYNQt15dfDVjhog0ZWZlo6Kvrygi7t27V5QEqQ3QskVzbNm6VWCiUVSk6DLwM6tXr8bXM2fqjk52FBAIBlSopJYBhZiYHpoL/cRJE0Ufo0OHDrfNTSBgqmdCQuPGTUScKTy8ugTNUmGRypVUtdy6bTuWL1uGk6dOivywI0UBgjGAMH783/HTT9/j7Nkzt8FcAYICBAUIRS3grAehTJmyGP30s9i9ZxeaNGmG3bt2Ys/eXbrnb0fmSl7r9h4ENpCqjjwaeOjQQbz88stY9euvcgSTqo5/+tNIJJw6KW/LAwYMxLx5c9G2bTuRSP7sv//FmDFjRAEyOaWoNK2jhjLiemcBgW1o3rw5Bg0ciDVr1uAvf/kL5s+fj8TEC5IGl4ORssoUG3rl5Zewdt06bNq0WX52+fJlLFm8CKOeegrJycm6H8dRQCi4ERUl//znP2PS5MniSaAXgXLPL44bh02bt4BiSTt27MDSpUtkweFedUXfihg6dAjWrF2LYcOeFBfhjrg4HDp8RLwL3337Ldq0bePQsyhA0AcIdGc3jGwoKo7PPfsi5i/4EQmnTxWxvQIEBQgKEIwDBMLBqFGjcejgfkREROLAgf3YuWsHcnMtHzGnp6Fx42b3dMGtWzdx+XIqEhKKfl+1TJxuDwh8CD8/f4wZ8yziYmPRrn17rF61CoMGDULMho2iErh3z27EbNiAnj164JcVK/DQQ22wYUMMgoKCRKZ3e2wsNm7coMUeLr3GEEBo1gyDHntMAOGvf/kL5s2bJ2JNHBw9e/aUt/N33nkHbdu1w9q167B+/TpwoPE889Ili/Hc88+L90Vv0QsITBhCNc7nxozB6GeeEeDr2rUr3nvvPclJwAQ69A4sWrwEnTp1wunTCdKfBKJ33n0Xe/bsQWRklGwrEH74Mypf8g3WkaIAQR8gMAahTt26GPWn0QIH8ceO3mN2BQgKEBQgGAMI9LyOGD4KISGhEmAZsyEacXHbTU+q5faAQEONGzcOA/r3x0cffYSWrVrhyJGj4n4OCwsVt/r3P/yATyZPxlNPj8bChQuwfds2vPf++/jhh9mihkX3tpmZ86wtWEYBwmOPPYYVK1dizLPPirdg9549KF26DC6npqJps6Yilzx8+HBs2LBRJJ7zAeE6xox5Dv369cUTTzwhyS/0FD2A4OPjg6efHo2szAxsj43DC2Ofx2f/+xy9e/eS7SCRey5dGtdzchATswGrf1stXg/+uXjhAoaPGAFvbx/8+OMcVK1SBSkpqfj8889Fya5b9+4OPYYCBP2AoOSe823HCZtqjrYK46RUkGK+hVQMguOBovXrN0CtWnXQtEkzxMZuw8bfY4olcaHbA4JDs7+bX2wEINh6RAIDYy+WLVvmMks4CggEPH8/P6ReLpSd5WIfGBh4++2fAMPrGD9RUBhUxGNHBLs7JZ+dfTAFCK4BBPbVhcRLdrvH2WOOvr7lbd6D2Sr1ZsnUul/M9NTeNo584haQle16QAgI9LMJKlr7xJJBNZ9iKFUKYVVsn2KglHLa1Wt2x4arEiXxSKotFVA2zN2CFGkLxmHRk3rixHG7tnPVBQoQXGVZC/W6GhDMeBRHAcGMNjlyDwUI+gDBt2J5eDNNtZWzYmlp15CdZT99tbOA4OPjbUNmOV9aWK+3UCsgcDuPi461Y3M38m7gem4umBvCVnH2mKMvc1N4eVqRv76FjIxsZKTbzz/gLCAEBFYSL6WlQlukZ2QiR0Nqc1cBAl8+vLw8xEtprWRkuCb1t9Yx5cgcZua1ChBMtLYCBBONbeVWChD0AYJRPecsIBjVDkv1mD2ZOwsIrrSFVg+CkW1wFSAY2UZH6zJ7TDnaPnvXK0CwZyEDf68AwUBj6qxKAYICBGtDx+zJXAFC0Z5QgKBzUnPhx6wCQr6ao2NnzF3Yzvuiasrc8g2Ke+1mqqQZaTzGD+SrOdp3Jxt5X6Pq8vJiql6qOZo3tvPVHK+7XZ/TLZyv5mh/f9go+zPRF+/rjkJwlSr5/aG8Z46cI+eDfDVH91P748LAOcrakTqjxsOd9fj6VpRTSpxf7peSP6aulNjHYSzYPWqO3GMLDQ3WvZdXYq3h4oZzz5KTI4OHXJH328XNl+oZoMU8BXr3ec1oo617MI8+5XzNbD+/ZLyfu/U592bZn2bCKo+zcmHkMVd3KzyKayb4cj7gUV3Co7uV4hizhEeORXfPiOtIX5k9phxpm5Zr+T2lBLeSe9ZiLSevUVsMThrQgI+rLYZCIyq556IDSm0xFNpDxSAYMNkAkryOycVKalExCCb2nAIEE41t5VYKEBQgWBuFZk/mKgahaE+oGITinx/vboECBBP7RAGCicZWgGDX2I54EHisj+m8rRW6IDM1HBVz9hSDh4cteWPczp1h9+EtXKAVEPg95laVrULXrKuPOfKIYxlb7bjFo476ju9p9SBwm8rHngR3bh5ycuxvo7gKELitxT5jWy0Vbjmyv1yxtaF1TOkZr2Z8RgGCGVb+4x4KEJwzthGS0MqDoM+DYE3uuUP7Tti6bbPso2uRFnYWENwhUZLKpFg4hkqVALlnLYmSCFKuiBEyChA497Vu/RCCg0OwYcP6P4JpnZtPtXxaAYIWKxl0jZGAQFVESh9v2GBbY6JP796iRVGvXj2RVd62fTuCg4MREdEQFPGIiYlB586d5QmvpaVh67ZtoutgLYhMS6IkBl5xIbh2LU3q5b+HDh0qBM82pKeniwATF+uuXbrAp3x5Sal85uzZ2wFbdevUkc+eT0yUnx0+dAg9evSQ/2dnZUl65rzcXEkzTX0H+XKXKoUrV65i/vx5VntMKyCEhoaKJsTixUtESrx79+5ik8OHD+PatWto06aNCGDt3LnTbsAjJcp5asLMADgtQ9YRD4IlQOjSpTs8ynlg7brfJNpdaTEUWl2lWi60hUq17FwMAteNhx5qi+CgYPn78y/+izNnTmv5ijt9jVsCQlhYmAg0nT9/TiZVRoDT/VOjxgMICw3F4cOHEB4ejvhjx1CjRg3J2X/y5EmRhN65c5ccz3ywdWskXbqEs2fPon69eijPvP4XL+LKlSugsiA/a3axBQj8Hd16PBLTvHkLxMcflVSbW7duQd26dcVFlpCQgMiGDZGamirP379/f3z2v/+JDHZ49erw9/fHqYQEubZmzZqi8hgVFSkaDV7e3qherZrIKY974QXExsXhxo2b2LNnN6ZOnYrp06cjIz0dSUmX0K59O8ydO9eieWwBAkGgU8eO2Lf/gLThiScexzffzMIDD9TAhNdfzweEUqXkKNMvv/wibsdXXnlZlBzXr1+PH3/6SeAhvHo4RowYLgvytm3bZfFZsWIFXp8wQUSbKpQvL9BBXQeKcm36/Xfs2rVL7pl2LR2vvTbeaUB4/bXXcOz4cdSpXQeTJk/ChAlvIDp6PY4fPy5pWdu2bSuiV1RYs3ci4n4EhG5de4qbPTpm3e0jowoQFCBY+uIpQNAPCJzT2rZpj4CAAFkDuR2yYWO0aUdj3Q4QuLBxEUy8cFEWkzNnzsgExMWCSoWXki+hoq+vSD2z8d27dcNPc39Cr169sHjRIvTp2xefTpmC2rVr46E2beVtcsTw4Th0+DAaNGiANb/9hsjISMydZ/0t01XgYA8QXnnlFXz11VeoV6++DAa+Fbdv11b+XrFiJdKuXROxoitXr4Bv2Hzm9eujcePmDRw6dAhdOnfG0aNHUcHXV+xFT0F0dLT8OyUlBf96+218PHEi5s2diw8//FDegr+YOhVLlyzBB//+N6pWrYrdu3fjhbFj8fzYsQ4DAo8pNWncGFFRjbB02TIMGNBf1Cbp6Zj48cfYtXsPypUti7wbeSIyVaVKFbz5xhuy2B8/cQJxcXFYu3YtmKvghRfGIu1qGg4eOoTTp08jIMAfDz74IHbv3oM2Dz0kQk2TJ08W70hMdDSmTJkCHs2iN2LmzJlOAwLFwAgIgwc/jokTP8a3s77Fd99/J3YktLZr206ik6keas8zcD8AQkCAH6qHVxfvCbcVbuEWNm/eWET0SwGCAgQFCEUt4MwWQwEc+Pn7o0zp0sjNy8OOHbEy71jaDuHx4WrVqt/TBRIflJmB1NQUh5c2twMESjTXfKAmIhpGIMA/QNQZs3Oui5v51b+9gvXR0bIQ/jR3Lrp06Yq+fftgxIgR+OnHH/For17YEBODt956C9fS09G7d298+umnoiQ4a9Y38tZ34MBB3LyRh6Px8Q4by9kP2NtimPbll+LxmPLpp5g0cRL+73/+g/9+OkUWzvc/+EAW1NOnz8jWALcFuGDGHz2KgYMGYdGixWjapLG43LOysnD8GBe3x7B48WLs3bcPL44bh4tJSSLk9Pe//wNzZv8ggDH1yy/x6qvj5U187Nix+Pjjj3UDQoF9unfrjo4dO+DfH34kCXHoIaBE95Gj8fLWSejjs/75z38WOecCMabt27dj+fJfULlyIBo1boyszCyEhIQI3FGwpE+fvpJ7vkH9+gIDlLx+6+238fjjTyAudjv4RaK35PSZM1bf6rVuMfCLMfzJYQIA9BQMeWIIEk4nYMTwEZg1axY8vTzFY8H+OnHihM2hcT8Agn9AJQHsVi0fEm15xh1kZKQXeW4FCAoQFCAYBwjt23dE82YtxKt64WIidu7cgaSki1ZjJUQYzz/A4lzEl5i7v69a1jO3A4SKFSuid6/e6NmzpywAmVmZaNmiBX5etAj9+/WTN+KOHTti/vz5IvXbp09RQNi4YQNefvkVjBv3gkzekz/5RKSPCQotWrRAq5Yt8fkXX2ixjeHX2AOEZk2b4l//egePDX4M0evXi1eAWwmxsbF4+1//QkREBEaNGoUDBw7IIsttFL7l0oty4cJFtH6wNb6aMUMUHfns9CDQJc6thQ8++EC8LhMmTEDduvUwbNhQodI33vy7LNTBwUHypr5p0yanAKFbt24ICQ7B5StX8HCnjvjXO+/i0UcfwdAhQ2TRLufhgeRLl7Dx99/h5emJIUOGiIdj7bp1OHzoMM6dPyd7+3ymdu3ayZdj3vz5IDz8859voWFEA4G73Ou5qF27Fj786GORt65UqSIaN2qEhx9+WADhs88+s9h/WgHhvXffQ8uWLcSDMX78eLz//vugf2/Dxt9x8sQJjBnzrGz5fPf9D3Yzpd0XgOBfCQGBAXjggZqy/2kp+6ICBAUIChCMAYSqVauhVcvWiIpqjOMnjmH9+rU24cDwxeqPCt0OEOimpkuab51csDih8y2Sb2nch6GLl39fuHABgYGVERIcJG/NTZs2lTfthx56SPapmzRpInv1/BzfvFlGjRwpQXorV650lT1t1msPEEiAzZo1x65dO8U7wGBBek6uXr0qWwdMy8rnog2SkpLERkyDWaliRSrMonLlygIE/AyDpG7cyMNTTz2FuNhYeePm4syFlvUSlrh1wyA7xm4wfoFxHFRf45vips2bHN5iYKpUbgUwOx8XTz4DweXWzRvSj6VKlwb7Nyc7Wzw8bGeTJk1lP439eTn1smw/EAq43cFYFLq0GdjI+pq3aCnQw20QBg7SFlu3bhWgKF++Avz9/QSG+Jk9e/c6BQitW7eWtrIQmvh/FtqLP2/WrJnEs+zfv9/uWLpfAMHbx8vmsypAUICgAMEYQKhSpSoaN26K7OwsiXNKSUl2ySkLe5OX2wGCvQbr/T0DGbno8M2aQXLFUewBgivaxFgMusgJEloK20iAsJZ+11aQIiHk7vPEBIM77c36C/bPeB/CBD9DOCo4OXH3cUbWQRcZr2Wq6oLUnz4+Prefq0DK1d5RJa0eBC220nrN/QAIfn4VbZ53T0/PQNrVolsOluzj7DHHChV8rJ5nZ96BfM0LfWmcte4XcxzmyyxbHgH0lGVnX7c7oTubKIknS7y8rck9A5mZ2bhyWZ/OgyN5EIJDAmXOsFQYCH3tWrqmHBmuzIPA/rIl98zxywBAo4vWMXX3fTmX8oWLgKB17ja67azv/xtAcIXxHK2zOADB0Tbau17LMUd7dRTn7xUgFFrfkWOOXABKU0fBSufl5WnTmnAWEJj0xlrhBJ8f6a1vptc6mRNgS5e2ZgnZibILB3wGZwGBSZIkAZAVg3BxtnfCxpottQICP8+8ENaTEFG3RZv2jKsAocDW1oCOv2cbXVG0jilX3NuIOhUgGGFFjXUoQNBoKBdepgBBHyAY1SXOAoJR7bBUj9mTubOA4EpbOAIIRrXDlYBgVBsdrcfsMeVo++xdrwDBnoUM/L0CBAONqbMqBQgKEKwNHbMncwUIRXtCAYLOSc2FH7MICHQnVq0apttV58L2lviqC1xxet2gxW0A1X7He8CdbXZnTIjjT+b4J5QtitrMbPtr7bHi6Cd3tYVWm1m6rqQ/EwPZeTzyHrlnBsDwDLsqxlmAg4VExkAqRuGXxMJgT+5rMtdCSSy0P8DEIeaNbbpr+UVztz5nsB1jSq5cuWxaV3KLgbEPlo5JmtYIKzeqXDkIycnJMj7MKJwPeG6dEeruVnjcnIHB9pKAGdlu2oInmvTGTRjZFqPqyh9Tl4yqzvR6vL19hAPuAQRGLStAMLY/1BaDsfbUU5vaYii0miNBinpsbekzKgah0Cpqi6HoCFFbDEZ9y4yrR8UgGGdLuzUpQLBrIpdfoABBJyCUAvKltqwXLdtmChCMA4T8qHzn+8RSjzoSpGjtBENBvVrGBa9VgODy6c/hGyhAcNhk+j+gAEG/7Yz6pAIEfYBgTe7Z29tbtk/oFr6QaN+V6iwgKLnnwv4LDPSHp1d+Mi9LhQuzFgluZwChJMg9M7GZh4f1o5h8fneXe2YbqVFTtkwZyS5sL9+LUfNliQcEe0EgDLh0lz0tIwHB09NTMvoxa6CtwmyLTFTEiZmFWQqZhIMTO89rU5KZ+40stBN/f3eiojvrdzYPAve9mTiI95IskJUqSUwGz9EXnC3ns3HR4e/vTKrEf2t9G7FmE62AQBvRLszSyPuynbx3wWLIWAwmdmIb7bXpfkiUZAkQ+Jb53JgX8cXUKWIHlUmxcNQpuedCWyg1R/1qjgVW5BwycuRoNGvaHO+8+08kJJwyigFs1uN2gMBFr2CB4MTL//PvgrTDXEwKJmcuuExJSWNxQufik5aWdvuB+X+m66XMM+tkYB2v4+LE+swOtLMFCFyUmSUwLy9XFiZOuHxOpllmxkD+nu3lz5jlkIqGHTp0wMRJk+RaeTMrWxZZ2dnidqTaIW31+uuvY9GiRaLc6O3lhRlffYUO7dsjqlFj3Lx5A9OmTcMHH/wb586dRdLFi5i/YIGkbKbWg6XiDCDQ5tSTePnll6VPmPb55ZdewuYtW0Rciim1+Sxt27bB75s2id7G+fPnpRnUALhwIfG2tLDeb4dWQOjapQsGDBiAqV9OE3nxd999T9q8bh1zol/C6NGjZdwtXLjQatbJO7/cBAszA7602MeRGIS7AYHu4KdGPYuvZ067rUWhAEEBgqVxpwDBGUAoJdICgwcPwa6dcWjSpDmW/7JE5kIzilsBAifvqKgohIVVkRz3ebnXQflnvsFVrFQJ586dE2Ee6giUKU1XSxaGDh2Kt996Cy1aNIeXtw+2bNksEzkLAYELC7UKqlStIp8PDQmROqpUrSpiUGYWW4DAtrZq1Ro7duwQFUrqSXBR37EjDo0aNUbypSQcOHhQFnc+R/kKFUSE6qeffsLevXvluRo2bIi4HTsEqhrUbyB22LV7F+rUro34Y8fQu1cvLFu+HN99+y3Gvfii6C9QA4GLHOuiV4E/0yv3bM+WpOCePR8RfQxf3woCB6GhoaIwGRMTIzoUF5MuwtPDQ057rI9ej8OHD4v+wsABA7B06VIkXrhg7zY2f68VEKb85z+ioDnz668xYOBAEYqaOvULgS7CWvVq1ZGckiz2s+fuuy88CAGV4OdXSbwm1EAZ/NgQzJ03p0gEvgIEBQgKEIpawJncGpxnKlcORu/efREffwS1a9VBbOw2HI0/YsUrzhdDb4vzH3V5OHc5WtwKENq3aydqfLPnzAHdl0yrSiMREq5cvixHgoKCg7DmtzX4xz/+jo8+/hh9evfGzG++kb+XLluOxx4bhBkzZtwGhAYNIhBevZqoHr42frwoAa5bt04WnRUrVjhqL6eut7fFwMX+88+/wJEjR9C/f38sXrxIFnNCwzvvvoegypVFJZFv/lS0pDAVF1B6E2gDqmCePHlCBsn+AwfQ69FHsXjJEuzbtw/16tUT1cZ//vOfmDlzJmb/8AOGDRuGp0ePxjfffIMVK1aia9eumDx5kssAgcajl+CRRx6VN/G6deviow8/xPLly0WxMahykOyv+fv5ITklRYSnuIVCj0P9evUwbfp0eZYCzQY9naEVEAhsXbt0xaXkZOzZsxtff/U1YmKixYOzf/8BtG/fTrxVs2fPlrbaKvcDIAQE+gmAlivngfZtO2L5iiW4eLEorClAUICgAME4QAgNDUP/foNwKuEEAgMCsWfvHhw5csjq/Mf1pU6devd0AT3w3ErW43VwK0CgImPPHj2wfn00zieeFw8A3eUtmjdDeHgNUe7r27ePeA7atW2Lv736Kp588kl8OfVL9O3XD1evXMH66GgkJua7pfn5OrXrICQ0RFzwwcEhIpVM9zsV+swu9gDh+eeeQ79+/dB/wABsiInBtGnT8eSTw0Tu+b333xdPgC/3xVNTUa169dtyz08OG4bdu/egVu1aWL5sGRIvUO75DDp37iz1UHWQ0PT1zJlYtWoVunfvgcupKahTty7mzZsnoMDtBUpsfzNrlssB4amnnkZG+jVcTErCY4MGiWeE/dK2TRts2boNmX+IaR08dFC2hlq3ao2169aidesHcexYvACUXkjQCggdO3bC0CFPCABwC6Rz5y5yPp5emBlffS1v0/QcJCen4MSJ4/c9IHCLIbxGOHr26IXo6LU4e+7eLSgFCAoQFCAYAwicp/r2GYAaNR4QcbqYmPXgfMgtaDOLWwEC96gpq0tvwJq1a2XRYKEccY/u3bFl61bZh3+4UycEBAbik08+ARfH6TNm4Omnn0Z49er4xz/fQmhoiHyO6m6c1Lt07gxvHx/88P336NOnDyr4+mLq1Klm2lnuZQ/C3ZwWAAAYRElEQVQQ+Pzjx7+GSZMm4v333rsdhBgfHy9elRo1auCll16S7RdCA70CFxITUat2bdy6eVMkrxf+/LMAASWhaatatWrJFkvXbt0ktuGtt96Cp6cX3nxjgshhfzxxIgYPfhwRDepj6bJl8rO+ffpiyqdTLNrHmRgEVhjg7y9SyefOn0f79u1x8OBB1AgPl/9HNIjAho0bZW+fAZTlfXzEk7Jh4wbQBvXq1UdUZEP8umqV7kRHWgHhnXfekcBElldeeQX8Pxv10ccTUalSxdveqC+++MLuOLofPAjWTjHc+fAKEBQgKEAwBhBq1aqD+vXqo2q1ati5cwf27dtjN9bJ7kSk4wK3AgQd7b/nI5TI7NSpo/ycC+TatWtvX0Pp406dOmH1qlU4e+6cEbdzqA57gOBQZRovHjF8BNavXycLsJZCrwuzZ9ElZak4Cwh31unh4QlPT+snMRhQyrf0O0+hML6CQZr2Tg5Ye1atgKDFVlqvuR8Awc+/Inx8LO9v0g7Xr+ci+VKqXZO48pgjxwSlnnNyHN9rZcO17hfnf0c8rT7rrZu3kJWdY/f0lLOJkgIC/ETu2VqhLS4l2d7+svZZrXkQuAUcGhZkU80xPT0T19LsS4G7Kg8C1SY5z9jK18BAyvwXSmOL1jF19125jtWqVRtJSRdve8SNbZm22u47QND22MVzVXEAgtFPaiQgGN02LfUpQCi0kiOnGLx9vCR41FpenszMLFzPse/+dBYQbE30BYBgL2jU2jjROpnze2xL4vjmjRvIzbthF2KdBQQCWzmPcrAmY5ydfR3ZWTzV5HhxBBCYm4JS4JYKZZSzs3OQe93+2HAVILBdHh7lxINrrbCNrihax5Qr7m1EnQoQjLCixjoUIGg0lAsvU4CgDxCM6hJnAcGodliqx+zJ3FlAcKUttAKCkW1wJSAY2U5H6jJ7TDnSNi3XKkDQYiWDrlGAYJAhnahGAYICBGvDx+zJXAFC0Z5QgODExOaij1qRey6N4OCgYgmKcNFzukW13AOjq4tZA90lu6OjhslPXHVT9npLYqH9GQDJOAazCk9i8NSFu/U5Fyj2J5M4mVW4f8/jy3rjBFzZTiYkM1Plk/MBjySbeU+t9uOY5dl5zlVmFdoiJyfbJbEAZj3D3ffhCwkz2ZbkwlMURdQc+QUOCqqM3Fx9wT4l2RiubHs+IBR88UrmAsuJg8E8JXVs0P482aInaYjescEc6jyepPdopt772vtc6dJl/sgwap70NeMeeFqHC4G7lfLlK/wxmRsfrGbpWTkf8A0tI8N+AJ/ZtiqOMUtbZGdn2U08ZrYtnLkfY7bcUdpc6zOVKlVajlkquWetFnPiOrXF4ITxDPqo2mIoNKQjQYoGmT8/JXg5nlyxfErGqPvoqUdtMRRaTcUg6BlB937G7DFlTKsLa1ExCEZb1EZ9ChBMNLaVWylAUIBgbRSaPZmrGISiPaFiEIp/fry7BQoQTOwTBQgmGlsBgl1jO+JBKF/BR+JnrBW6IK9ctu8VcNaDYDP/wC0qkjI+Rl98iVZA4BYJ5YNtFeaFYFtsFWcBoYJveTluab1TgMuXr9odB5Yu0OpB4DYJc2TYKjnZ18FjsPaKqwCBcS9ly5axehyUMUmMidGbW8XWc2kdU/ZsU1y/V4BgouUVIDhnbHvS3lpqVx4EfR4Ea5kUn3xyFH7+ea4kJUs8b1+1zllA4Jl7W4XBs3rPtGudzLkoe3lZT1DE9im558JeKm41R+bOsJW3gi0lwNgDOi3zy93XaB1T9urm3DdwwGDRJfru+1mSQMmMUqIBgXK8zZo2xX+mTJHAJ6YJtkaBzMrHwJvi3Pt0FSBQZInP9+uvv94eM0yvLBLDOhS8bA08RxMl8ZlbtmgholAFhW8dFJmKiY5G9+7dcfjIUURGNhSFzti4OISHV8f5c+exbv06WXj4pssTAJ06dsC+/fvx6KO9wIW+fr26eOVvf3Poe6IAwThAePqpMdixMxYHDuyT/lGplgttqwDBfQDBy4uAYN375e6AwDl00MDHkXTpIjq074Rvv5spWjtmFLcFhOrVqiEyKgonTpyEp0c5pGdkIDAwEInnz6N6eDi8PD1FDpnqhitXrBR1R2ozHD5y5LbdeGyJGg7Hjp8QFb7ODz+Mz/73GdLTiydq2FWA0KplSzRo0ED0F3jCgOJHjw9+DLt378bvmzYZGrHvKCCINHL16hg1cpQcb2OfUODoVEICQoKD0SCiAfbu3YcqYWGYv2C+HEEk7DHqn0DHLzb/UNKa2gzDhz8pzzp9xlf44P330L1HD4e+JwoQjAEEwsHOnXE4cLBQXVMBggIES1/G4vYglGRA4EmjQQMH41JyEqpWrY6zZ04jNm6bvDiZUdwWEIKCgkSSmS7DJx4fjD179yIqKgrHjx1H/LF4pKVdw4D+/VCtejg+/PDfIsT0xJAhIlTEwsW4SpUqIrgzfPgILFgwH0OHDMEbb75ZbOfRXQUIA/r3x8iRI7FgwQJRezx86DB69XpUPArRMTGG7q05CgjsC39/f3w7axZ+/Gku/Pz8cCw+Httjt6NDhw54pOcjWP7LL2jXtg3Cwqpg1+5diD8ajytXr+LBB1uLKNXRo/Hi+SlTpizGPv8c0tMz8NuaNZgxfRp69Ozp0PdEAYI+QKDcM+W56aV7fPBQ7NwVh4MH9xc5uqkAQQGCAoSiFnBmi4EvSv37D8Lly6kICw0TPZ2dO2KRnpFucU7n+lKvXoSFLriFq1ev6NJ0cEtA4Fsnlf4odUlpX0oeb968GU2bNMG5c+cwf/58pF6+ghfHvYBGjZtgwoTXRZZ34MCBt8mKb6p/e+UVHDkaj86dH8bUL74QWWMCQnEVVwECwWfs2LGYNm0abty8idMJCeD2yy8rVmDjxo2GPq4eQCAU/LxwISa88aZA39GjR1GhQnm8/dZb4t3Ytm0bQkJDBQQ2bfpdPDwMNOvU6WFRMjt1KkE8Csxh8OCDD2Lfvr3iXZj1zUwFCE70riNBiv4BlUQ9dOCAx7FhYzT2799zT14HBQgKEBQgGAcIAwcORs0HaopXdfeenYiL2y5zo61gSuapsVS4BagnD4tbAgIfcOjQoXhy2JNY+etKSV7StUsXREREiFwxFRk5WZ0+fRpcsCa8MQFfTp2KRYuXYM6c2WIfuqW5Vz3+1b+J92H69Ol4/rnnRN6YnyuO4mpA+HLaNORev47TZ86gR48eOH/uHH5etAhXr+qLZLZkIz2AwAxpI/80Ej/M/gFVqlTFyZMnZBuBbezYoQP27duPatWqYcfOnbIVdPTIEWRlZyE19bJ4Dmg3AgMBgXVxoGdlZWL58uV45JFHHOpK5UHQ50FgkCKj5ml/xrZYmmwUIChAUIBgDCDUqVMP9es3QMsWrbBr1w6sW79WEmq54qSFrQnUbQGhYO+ZExGNwqMqXChycnJu/5uqbaUAZOfkSAKW0JAQ9O3XX56XezTffDNTMsWRnrjAsE6+sepVe3NoJbJwsasAgc/lwWf743gXn4/2unXzJnL/sJ+zbS/4vB5AKAA29gOlpAsyxwUHBaF69XCcOHlC0s2yr+g9KqBk/p/3S0tLk8x7tF/BFyQsLEzAx9E0pgoQ9AMCFR1tFQUIChAUIBgDCMHBIWjevCXOnDmNI0cO6Xr7N2LOd1tA0Ptwd0p6FhcIWGu7qwBBr630fE4vIFi7F4HATCpWgKAPECr5VYSPj5cAnKVy5UoaMjPsB045e8yxQgUfq23g953n2fXqB2jdLyZ8M/DNmi3ycvOQcz3X7ouIs3kQmH/A29t6n6SnZyLt6jU9X3M4kgchKDhAXkgsFfbFtbR0OfZpr7gqD0K+5oWXBElbK9euuUYvQeuYstSugvFl5vx4dzvuO0CwNwiL8/cKEIrT+vn3VoCgDxCM6jlnAcGodliqx5nJXE+7nAUEPffU+hmtgKC1Pi3XuQoQtNzbVdeYPaaMfg4FCEZb1EZ9ChBMNLaVWylAUIBgbRSaPZkrQCjaEwoQin9+1OxBCAjwk0AwVYyzACcEnq5gGtbr13OMq9jEmqh4x1gCqq6VxEIippqjmRK7vr4VJXbG3fqcbmH2J49AmVXoQeDpCXdUuAsMrIzU1BTTtrw4H/j5+cs93a1wzHK8ctyaVWgLBiW7myy6M8/PMZWSkuxMFcX6WZ4WIwfcJfdcBlWqhJr2RSlWC5h884JAu+LcV3LmkUt6+4tjX8+dbWZE+mpHxhPtzz/uFh/EZ+DJGrMXp+K4p5b+Ko4xa/ZY1GIHZ69x1/7V+lwExILTE6XCa1QTIfR8sq2oPAharajxOrXFoNFQLrxMbTEUGteRPAhGdYmKQSi0pNpiKDqq1BaDUd8y4+pRMQjG2dJuTQoQ7JrI5RcoQFCAYG2QqRiEQsuoIEVjpiKzx5QxrS6sRQGC0Ra1UZ8CBBONbeVWChD0AULZcmVRprT1Y2J0PV7PuW63g531INBla6tw607v9oXWyZxbJHcep7bUHrbB3jaisx4EKhTaawePfeopjgAC1RJtFaokasni5yoPAm1k7UhqQbu19JceO2odU3rqNuMzChDMsPIf91CAYKKxFSDYNbYjWwzW5J7r14/AsWNHZQFQcs+FJldqjoW2KG6xJi1yzxkZWbrB0tYXzShAIODUrl0HFam1c/iQaUHWxQYIzJLXtGlTycOvt/DzzJh4/PhxyZJolsKV3vYaAQisg9Hn/n5+CAgMxKFDhyw2p0mTJjh//jwuXbp0+/cFaXLtvdnYej57iZIowMT7MtgrLDQUW7ZulfZGRkbJ336VKiE5JRnZWVmiG1GrZk3gj+Q7TMETf+yY9CWvpTJlQIC/ZME8ePAg6tSpI1kWq1atKl9m6nQkJyeDapbbtm+Hp6cXIiIaiIqltaI8CPo8CJYAoVFUYzRq3BQLF86VaHeVSVEBgqXvXXEDQklWc6Q9CQf5aZdbo1WrB/HJ//0Yp08n6F2GHPpcsQECBXz++pe/YOKkSahatZroW995pIaLWXBQMDIyM8RA1Bgo5+Eh5MR8/fzz8ksvYeu27Vi+fBl69eqNmOj1onhVULjQcEHgUZPjx4/JZ0h0FxLPw9PLC5UDA5GckpK/cPn5ISkpSdL6uqo4CwjlynmIol5wcJAslK1atcIvv6yAh0c5UbGk0h4XTj4LdSfWrFmDk6cSZJE9c+YM+vfrJwvtwUOHdNOyPUBYuoR6GD8iMzNDxLOeHj1a0mA/88yzIrZF+9IOv/66Et4+Pnh88GCxP/uYfbtq1WrUr18fmVmZKO9THh4eHgKAS5ctQ+eHO8nvKNhEANm0aRMmf/IJRo0ahVmzZokQ1Kuvjsdrr423+nwKEIwBhCZNmqFhRBSWLlt0O3W2AgQFCAoQilrAWQ9CqVKlERHREI0bNcGlS0mylq1Zu9q0o7HFBgi+vr549plnsHfffuTmXsfZs2dx4sSJ29YNDQ1D7dq1cfPmDTRu3Bj79+1D5SAqAR6RN8gbeTcwdOgQLFi4ELGxcViyeBHGjRuHAwcPSh1ccCgZ3bhRI3B/lDn7U1NSRfApNy8XJ0+exAM1HkB8fDwCAgMQGhIq0sKJFxJdxQeyMHKBoh6EnvPFXGh79uiJNm0ewuw5c9CnTx8cPXJU3sQvJSUhJTVV0olmZmahT+9e2Pj777h8+QoeeKAGdu7ciZ9+/BH//ewzAQe9x7lsAUKNGjVEQXN9dDRysnOknXPnzsW19HQRWqKk8+YtW9GlS2exNVAKffv2xcULiQIJhw8fxvnziRg58k84feYsfLy9BRDZb9u2bUW9+vUFfApAqEWLFujWvbuId1HaunPnzujWrbsAgrXnU4CgExAC/BAaGixeusjIRqhdqy5W/7aiCFArQFCAoADBOEAgHEQ2jBJAuJp2Bb4VKiI2bjvOnj1t8QWIa17lykH3dAE9xlxvmGPC0VJsgBAYGIhPJk/GgoU/Cw01jGiIr77+6nb7mzVrJrTEt+OnRo3CvHnzULNmTcTt2IFbN2/JmzBlnrds3YZly5bi15Ur8WivXre3GbgY1wgPR/PmzbFz1y688cYb2L5tmyxWdElP+fRTRDaMFHC4cOECGkY2lDqPHTvmqA01X+8sIPBGtMtjgwZhzdq14oGhXY7Gx8sCS5Bq0bwFvpz2pahhrl27Dhs2bJA3eJ5l5dv9qKeeEre83mILEOgG+9OI4QIgbdu2xcWLSThw8AAy0tPRslUrkW3m1hKhj5DEgLMnhw3D4iVLZVth7969IgP9wtix8ll6PZo1a4qkS5cENP7+5pui+rh4yRIBxFGjRqJX796YM3u2/E3YaNOmLV599W9WH08Bgj5AYOK0BhENULNmbVSq6IfomLW4cuVyETsrQFCAoADBOEBo1KgJOnZ4GMnJSTJf7tq9C2fOJFh9+SEghIVVtdAFtyRlweXLRb+vWtaAYgWE999/H19/PVPeGC8kJuLfH354u82DBg3Co488ipOnTsLL0xNX09IQFRmJH36YjbAqYbKX3frBB7Fs2XIBhNk/zMa06dOwevVqqaMAELp16yZ73DRe0yZN4ePjjfOJiViwYCGeG/MsYuPiZC971MiRIo28cuVKLXbTdY0RgNCyRQs88cQTWLFiBf76178KIBCaSpcug5CQYPTu1QtLli5Fv379BBDWr1+HMmXKyj7+lCn/QfzRo5g+Y4YMOD3FFiDw+SZNnIRVq35Fq1atZVtg//59qFSpElb8skIWdpZz587hxx/nSAwKQWL16t8EHE6dOoV6devi+eefw8mTp0RaOCU1RaBt8+bNePedd8R7NGnyZFGFbNK4MaZ8OgU/L1yI116fIH3btm07TJ36hQIEDZ3raJBiSGgImjZtjgP79yEl9V7IVICgAEEBgjGAQE9Ap06dUb9eAyReOI/o6HUSd6DX86thOrB4SbEBAif/jh074vTp07INwNgBLmQs3Ef39a0ge+l0JyecOoUqVasiJCRE3ojr1K4tb5LUpd+3f7/sUXft2lWOFRUc67lxIw+nExIQGRWFsmXKiNub3gR6Ibi9wHiDli1bYu+ePShbrhwiIyOxZcsWt/cgMPCP2yQM5uPzEG7oAaE7im/b3Lf/fdPvaNSoERISEsS+BRnKmjVrjvr162HBggUCDHqKPUBo0aKlbHPQFb1v3z7p03Jly+L5558XrwcL4xO4nURw4J/k5BTwyBblm1m6d+8u8QiMPzh18hQqBwXJVlCjRlECDTExMeDApQQ0r+v16KM4dPiw9P+tW8CpUycVIGjoXEcBQck95xuVY9XLy9OmhdUphkLzqCDFJA3fxqKXhIfXQMOGUfLitHfv7mKBA7ao2ADhbosxJoFR6vmAcEsCMhgN70ihK52LJwtd0MeOxSPvxk23yYFvhAfBlj14ciEzI0PgwVXFXpDinfel14bbCAWBk4Q9S6XgnHIBHfMoDz/LQEz+jPELeXn25XO1PLPaYii0kiOAQGlhemislczMbFy5nA94toqzeRBsyT0TEPN1TvTBr9aAsny5Z8+Cwzf3PO7NGzeRnZMDnv+3VZzNg+AfUEm2D60ocCM7OwepKfp0NrTmQeD3NCS0stV8DPzuU0o5I92+ro+r8iCULVsGPOpoK2cEpbGdOd1lrZ+1jqm7P88XIX6WQd13b+XZ+44Z+Xu3AQQjH8pd63I1IJjx3I4AghntcfQeChD0AQJjgbgwWivcssrLu2G3O5wFBL69Wyv0HjG+hS8YeorWybwAfK0tzLy/lsQ7zgJCfp8wcRQPCN9bcnPzdHsKtQICb+0tsGQ5idbNWzfBdvCFzV5xFSDwvrSTrWRJbKMritYx5Yp7G1GnAgQjrKixDgUIGg3lwssUIOgDBKO6xFlAMKodluoxezJ3FhBcaQvNgGBgI1wJCAY206GqzB5TDjVOw8UKEDQYyahLFCAYZUn99ShAUIBgbfSYPZkrQCjaEwoQ9M9rrvqkVUDgsSazIyZd9ZDuUi9dkjxt4Ey++OJ+FsYUlPT204Zmju38rJA3dSenclWf0+VK16ur3KuW2s1FsXTpUpq2I1z13NbqZVCs3tM9etrK+YBxIHoDhvXcU+tnimPM8qgzU3a7IhZA63MbfZ3ZY8ro9t+6dfN2zp7bcs+cOHx8vIy+l6pPWUBZQFlAWUBZQFmghFiAgFAAbEUAwcurXAl5BNVMZQFlAWUBZQFlAWUBV1pAAYIrravqVhZQFlAWUBZQFiihFlCAUEI7TjVbWUBZQFlAWUBZwJUWUIDgSuuqupUFlAWUBZQFlAVKqAUUIJTQjlPNVhZQFlAWUBZQFnClBf4fCKwmUxl2ub8AAAAASUVORK5CYII=;" vertex="1" parent="1">
                    <mxGeometry x="740" y="110" width="520" height="226" as="geometry"/>
                </mxCell>
                <mxCell id="10" value="Actor" style="shape=umlActor;verticalLabelPosition=bottom;verticalAlign=top;html=1;outlineConnect=0;" vertex="1" parent="1">
                    <mxGeometry x="60" y="240" width="30" height="60" as="geometry"/>
                </mxCell>
                <mxCell id="11" value="管理人员负责录入系统的模型" style="text;html=1;strokeColor=none;fillColor=none;align=center;verticalAlign=middle;whiteSpace=wrap;rounded=0;" vertex="1" parent="1">
                    <mxGeometry x="30" y="330" width="190" height="30" as="geometry"/>
                </mxCell>
                <mxCell id="14" value="Actor" style="shape=umlActor;verticalLabelPosition=bottom;verticalAlign=top;html=1;outlineConnect=0;" vertex="1" parent="1">
                    <mxGeometry x="50" y="490" width="30" height="60" as="geometry"/>
                </mxCell>
                <mxCell id="15" value="使用者录入数据(手动)" style="text;html=1;strokeColor=none;fillColor=none;align=center;verticalAlign=middle;whiteSpace=wrap;rounded=0;" vertex="1" parent="1">
                    <mxGeometry x="30" y="585" width="190" height="30" as="geometry"/>
                </mxCell>
                <mxCell id="26" style="edgeStyle=orthogonalEdgeStyle;html=1;exitX=1;exitY=0.5;exitDx=0;exitDy=0;entryX=0;entryY=0.5;entryDx=0;entryDy=0;" edge="1" parent="1" source="17" target="25">
                    <mxGeometry relative="1" as="geometry"/>
                </mxCell>
                <mxCell id="27" value="api" style="edgeLabel;html=1;align=center;verticalAlign=middle;resizable=0;points=[];" vertex="1" connectable="0" parent="26">
                    <mxGeometry x="-0.6541" relative="1" as="geometry">
                        <mxPoint y="1" as="offset"/>
                    </mxGeometry>
                </mxCell>
                <mxCell id="17" value="" style="rounded=0;whiteSpace=wrap;html=1;" vertex="1" parent="1">
                    <mxGeometry x="190" y="480" width="280" height="220" as="geometry"/>
                </mxCell>
                <mxCell id="18" value="添加主机" style="text;html=1;strokeColor=none;fillColor=none;align=center;verticalAlign=middle;whiteSpace=wrap;rounded=0;" vertex="1" parent="1">
                    <mxGeometry x="334" y="490" width="60" height="30" as="geometry"/>
                </mxCell>
                <mxCell id="19" value="" style="rounded=0;whiteSpace=wrap;html=1;" vertex="1" parent="1">
                    <mxGeometry x="304" y="530" width="120" height="30" as="geometry"/>
                </mxCell>
                <mxCell id="20" value="ip" style="text;html=1;strokeColor=none;fillColor=none;align=center;verticalAlign=middle;whiteSpace=wrap;rounded=0;" vertex="1" parent="1">
                    <mxGeometry x="230" y="530" width="60" height="30" as="geometry"/>
                </mxCell>
                <mxCell id="21" value="name" style="text;html=1;strokeColor=none;fillColor=none;align=center;verticalAlign=middle;whiteSpace=wrap;rounded=0;" vertex="1" parent="1">
                    <mxGeometry x="230" y="585" width="60" height="30" as="geometry"/>
                </mxCell>
                <mxCell id="22" value="" style="rounded=0;whiteSpace=wrap;html=1;" vertex="1" parent="1">
                    <mxGeometry x="304" y="585" width="120" height="30" as="geometry"/>
                </mxCell>
                <mxCell id="23" value="describe" style="text;html=1;strokeColor=none;fillColor=none;align=center;verticalAlign=middle;whiteSpace=wrap;rounded=0;" vertex="1" parent="1">
                    <mxGeometry x="240" y="650" width="60" height="30" as="geometry"/>
                </mxCell>
                <mxCell id="24" value="" style="rounded=0;whiteSpace=wrap;html=1;" vertex="1" parent="1">
                    <mxGeometry x="304" y="650" width="120" height="30" as="geometry"/>
                </mxCell>
                <mxCell id="25" value="instance(实例表)&lt;br&gt;&lt;br&gt;字段Id:&amp;nbsp; host_ip.&amp;nbsp; &amp;nbsp;字段值: 10.10.1.10&lt;br&gt;字段Id:&amp;nbsp; host_ip.&amp;nbsp; &amp;nbsp;字段值: 10.10.1.11&lt;br&gt;字段Id:&amp;nbsp; host_ip.&amp;nbsp; &amp;nbsp;字段值: 10.10.1.12" style="rounded=0;whiteSpace=wrap;html=1;" vertex="1" parent="1">
                    <mxGeometry x="570" y="480" width="250" height="130" as="geometry"/>
                </mxCell>
                <mxCell id="33" style="edgeStyle=orthogonalEdgeStyle;html=1;exitX=1;exitY=0.5;exitDx=0;exitDy=0;entryX=0.596;entryY=1.031;entryDx=0;entryDy=0;entryPerimeter=0;" edge="1" parent="1" source="28" target="25">
                    <mxGeometry relative="1" as="geometry"/>
                </mxCell>
                <mxCell id="28" value="" style="rounded=0;whiteSpace=wrap;html=1;" vertex="1" parent="1">
                    <mxGeometry x="190" y="750" width="280" height="220" as="geometry"/>
                </mxCell>
                <mxCell id="29" value="通过程序定时或者手动同步" style="text;html=1;strokeColor=none;fillColor=none;align=center;verticalAlign=middle;whiteSpace=wrap;rounded=0;" vertex="1" parent="1">
                    <mxGeometry x="30" y="840" width="150" height="30" as="geometry"/>
                </mxCell>
                <mxCell id="30" value="访问 云商的 ECS API" style="rounded=0;whiteSpace=wrap;html=1;" vertex="1" parent="1">
                    <mxGeometry x="270" y="790" width="120" height="30" as="geometry"/>
                </mxCell>
                <mxCell id="31" value="转化数据为 cmdb 格式" style="rounded=0;whiteSpace=wrap;html=1;" vertex="1" parent="1">
                    <mxGeometry x="270" y="860" width="140" height="30" as="geometry"/>
                </mxCell>
                <mxCell id="32" value="调用cmdb接口 灌数据" style="rounded=0;whiteSpace=wrap;html=1;" vertex="1" parent="1">
                    <mxGeometry x="270" y="920" width="140" height="30" as="geometry"/>
                </mxCell>
                <mxCell id="34" value="程序" style="ellipse;whiteSpace=wrap;html=1;aspect=fixed;" vertex="1" parent="1">
                    <mxGeometry x="30" y="770" width="50" height="50" as="geometry"/>
                </mxCell>
                <mxCell id="37" value="开发 API 对外提供接口&lt;br&gt;&lt;br&gt;search host:&lt;br&gt;&lt;br&gt;host ---&amp;gt; fileds ----&amp;gt;values&lt;br&gt;&lt;br&gt;&lt;br&gt;[{&lt;br&gt;ip:&amp;nbsp; .10&lt;br&gt;name:&lt;br&gt;describe:&amp;nbsp;&lt;br&gt;}]" style="text;html=1;strokeColor=none;fillColor=none;align=center;verticalAlign=middle;whiteSpace=wrap;rounded=0;" vertex="1" parent="1">
                    <mxGeometry x="30" y="1110" width="140" height="170" as="geometry"/>
                </mxCell>
                <mxCell id="38" value="api" style="rounded=0;whiteSpace=wrap;html=1;" vertex="1" parent="1">
                    <mxGeometry x="220" y="1080" width="460" height="60" as="geometry"/>
                </mxCell>
                <mxCell id="44" style="edgeStyle=orthogonalEdgeStyle;html=1;exitX=1;exitY=0.5;exitDx=0;exitDy=0;" edge="1" parent="1" source="39" target="40">
                    <mxGeometry relative="1" as="geometry"/>
                </mxCell>
                <mxCell id="45" value="1:N" style="edgeLabel;html=1;align=center;verticalAlign=middle;resizable=0;points=[];" vertex="1" connectable="0" parent="44">
                    <mxGeometry x="0.0242" y="-4" relative="1" as="geometry">
                        <mxPoint y="1" as="offset"/>
                    </mxGeometry>
                </mxCell>
                <mxCell id="39" value="model" style="whiteSpace=wrap;html=1;aspect=fixed;" vertex="1" parent="1">
                    <mxGeometry x="240" y="1184" width="80" height="80" as="geometry"/>
                </mxCell>
                <mxCell id="46" value="1:N" style="edgeStyle=orthogonalEdgeStyle;html=1;exitX=1;exitY=0.5;exitDx=0;exitDy=0;entryX=0;entryY=0.5;entryDx=0;entryDy=0;" edge="1" parent="1" source="40" target="41">
                    <mxGeometry relative="1" as="geometry"/>
                </mxCell>
                <mxCell id="40" value="字段" style="whiteSpace=wrap;html=1;aspect=fixed;" vertex="1" parent="1">
                    <mxGeometry x="414" y="1180" width="80" height="80" as="geometry"/>
                </mxCell>
                <mxCell id="41" value="实例表" style="whiteSpace=wrap;html=1;aspect=fixed;" vertex="1" parent="1">
                    <mxGeometry x="595" y="1180" width="80" height="80" as="geometry"/>
                </mxCell>
                <mxCell id="49" style="edgeStyle=orthogonalEdgeStyle;html=1;exitX=0;exitY=0.75;exitDx=0;exitDy=0;entryX=0;entryY=0.5;entryDx=0;entryDy=0;" edge="1" parent="1">
                    <mxGeometry relative="1" as="geometry">
                        <mxPoint x="340" y="1342.5" as="sourcePoint"/>
                        <mxPoint x="340" y="1335" as="targetPoint"/>
                    </mxGeometry>
                </mxCell>
                <mxCell id="50" value="模型实例" style="text;html=1;strokeColor=none;fillColor=none;align=center;verticalAlign=middle;whiteSpace=wrap;rounded=0;" vertex="1" parent="1">
                    <mxGeometry x="605" y="1320" width="60" height="30" as="geometry"/>
                </mxCell>
                <mxCell id="51" value="定义模型" style="text;html=1;strokeColor=none;fillColor=none;align=center;verticalAlign=middle;whiteSpace=wrap;rounded=0;" vertex="1" parent="1">
                    <mxGeometry x="350" y="1320" width="60" height="30" as="geometry"/>
                </mxCell>
                <mxCell id="52" value="&lt;h1&gt;关于自定义模型的缺陷&lt;/h1&gt;&lt;p&gt;1.&amp;nbsp; 人工维护 数据延迟，不准&lt;/p&gt;&lt;p&gt;2.&amp;nbsp; 数据状态变化太快, 手工没法维护&lt;/p&gt;&lt;p&gt;3.&amp;nbsp; 每次资源同步，需要开发 资源同步程序&lt;/p&gt;&lt;p&gt;4.&amp;nbsp; 数据维护 复杂,&amp;nbsp; 没有 一张表(host)村一个类型的数据容易维护&lt;/p&gt;&lt;p&gt;5.&amp;nbsp; 开发周期长,&amp;nbsp; 2个 1个月&lt;/p&gt;" style="text;html=1;strokeColor=none;fillColor=none;spacing=5;spacingTop=-20;whiteSpace=wrap;overflow=hidden;rounded=0;" vertex="1" parent="1">
                    <mxGeometry x="40" y="1370" width="420" height="180" as="geometry"/>
                </mxCell>
                <mxCell id="53" value="&lt;h1&gt;CMDB 简化板， 模型是固定,&amp;nbsp; 新加模块需要 新开发模块&lt;/h1&gt;" style="text;html=1;strokeColor=none;fillColor=none;spacing=5;spacingTop=-20;whiteSpace=wrap;overflow=hidden;rounded=0;" vertex="1" parent="1">
                    <mxGeometry x="30" y="1620" width="580" height="40" as="geometry"/>
                </mxCell>
                <mxCell id="54" value="一个模型 一张表&lt;br&gt;一个典型模块 CRUD 开发&lt;br&gt;Host: host表&lt;br&gt;Cert 证书" style="rounded=0;whiteSpace=wrap;html=1;" vertex="1" parent="1">
                    <mxGeometry x="240" y="1694" width="180" height="60" as="geometry"/>
                </mxCell>
                <mxCell id="55" value="API" style="rounded=0;whiteSpace=wrap;html=1;" vertex="1" parent="1">
                    <mxGeometry x="470" y="1680" width="60" height="286" as="geometry"/>
                </mxCell>
                <mxCell id="56" value="一个模型 一张表&lt;br&gt;一个典型模块 CRUD 开发&lt;br&gt;Host: host表&lt;br&gt;Cert 证书" style="rounded=0;whiteSpace=wrap;html=1;" vertex="1" parent="1">
                    <mxGeometry x="244" y="1793" width="180" height="60" as="geometry"/>
                </mxCell>
                <mxCell id="57" value="一个模型 一张表&lt;br&gt;一个典型模块 CRUD 开发&lt;br&gt;Host: host表&lt;br&gt;Cert 证书" style="rounded=0;whiteSpace=wrap;html=1;" vertex="1" parent="1">
                    <mxGeometry x="244" y="1900" width="180" height="60" as="geometry"/>
                </mxCell>
                <mxCell id="66" style="edgeStyle=orthogonalEdgeStyle;html=1;exitX=0.5;exitY=0;exitDx=0;exitDy=0;entryX=0.5;entryY=1;entryDx=0;entryDy=0;" edge="1" parent="1" source="58" target="65">
                    <mxGeometry relative="1" as="geometry"/>
                </mxCell>
                <mxCell id="58" value="" style="rounded=0;whiteSpace=wrap;html=1;" vertex="1" parent="1">
                    <mxGeometry x="185" y="2100" width="280" height="220" as="geometry"/>
                </mxCell>
                <mxCell id="59" value="通过程序定时或者手动同步" style="text;html=1;strokeColor=none;fillColor=none;align=center;verticalAlign=middle;whiteSpace=wrap;rounded=0;" vertex="1" parent="1">
                    <mxGeometry x="30" y="2190" width="150" height="30" as="geometry"/>
                </mxCell>
                <mxCell id="60" value="访问 云商的 ECS API" style="rounded=0;whiteSpace=wrap;html=1;" vertex="1" parent="1">
                    <mxGeometry x="265" y="2140" width="120" height="30" as="geometry"/>
                </mxCell>
                <mxCell id="61" value="转化数据为 cmdb 格式" style="rounded=0;whiteSpace=wrap;html=1;" vertex="1" parent="1">
                    <mxGeometry x="265" y="2210" width="140" height="30" as="geometry"/>
                </mxCell>
                <mxCell id="62" value="直接往表里面写数据" style="rounded=0;whiteSpace=wrap;html=1;" vertex="1" parent="1">
                    <mxGeometry x="265" y="2270" width="160" height="30" as="geometry"/>
                </mxCell>
                <mxCell id="63" value="程序" style="ellipse;whiteSpace=wrap;html=1;aspect=fixed;" vertex="1" parent="1">
                    <mxGeometry x="30" y="2120" width="50" height="50" as="geometry"/>
                </mxCell>
                <mxCell id="67" value="Actor" style="shape=umlActor;verticalLabelPosition=bottom;verticalAlign=top;html=1;outlineConnect=0;" vertex="1" parent="1">
                    <mxGeometry x="50" y="1940" width="30" height="60" as="geometry"/>
                </mxCell>
                <mxCell id="68" value="开发UI通过界面录入" style="text;html=1;strokeColor=none;fillColor=none;align=center;verticalAlign=middle;whiteSpace=wrap;rounded=0;" vertex="1" parent="1">
                    <mxGeometry x="40" y="2030" width="150" height="30" as="geometry"/>
                </mxCell>
                <mxCell id="69" value="&lt;h1&gt;简化板: 好处&lt;/h1&gt;&lt;p&gt;1.&amp;nbsp; 逻辑简单&lt;/p&gt;&lt;p&gt;2. 开发工作量少 (2周)&lt;/p&gt;&lt;p&gt;3. 开发难度小&lt;/p&gt;&lt;p&gt;4. 维护简单&lt;/p&gt;" style="text;html=1;strokeColor=none;fillColor=none;spacing=5;spacingTop=-20;whiteSpace=wrap;overflow=hidden;rounded=0;" vertex="1" parent="1">
                    <mxGeometry x="54" y="2370" width="190" height="150" as="geometry"/>
                </mxCell>
                <mxCell id="71" value="" style="endArrow=none;dashed=1;html=1;" edge="1" parent="1">
                    <mxGeometry width="50" height="50" relative="1" as="geometry">
                        <mxPoint x="30" y="2570" as="sourcePoint"/>
                        <mxPoint x="810" y="2570" as="targetPoint"/>
                    </mxGeometry>
                </mxCell>
                <mxCell id="72" value="设计" style="edgeLabel;html=1;align=center;verticalAlign=middle;resizable=0;points=[];" vertex="1" connectable="0" parent="71">
                    <mxGeometry x="-0.0667" y="1" relative="1" as="geometry">
                        <mxPoint as="offset"/>
                    </mxGeometry>
                </mxCell>
                <mxCell id="77" value="&lt;h1&gt;需求&lt;/h1&gt;&lt;p&gt;1.&amp;nbsp; 通过Ip检索资源(10.1.10.2)&lt;/p&gt;&lt;p&gt;2.&amp;nbsp; 查找挂载了大瓷盘的资源&lt;/p&gt;&lt;p&gt;3.&amp;nbsp; 更加名字找资源&lt;/p&gt;&lt;p&gt;4.&amp;nbsp; 搜索这个应用关联的资源&lt;/p&gt;&lt;p&gt;5.&amp;nbsp; Linux 主机&lt;/p&gt;&lt;p&gt;6.&amp;nbsp; 找出&amp;nbsp; 费用大于 5000的资源&lt;/p&gt;" style="text;html=1;strokeColor=none;fillColor=none;spacing=5;spacingTop=-20;whiteSpace=wrap;overflow=hidden;rounded=0;" vertex="1" parent="1">
                    <mxGeometry x="560" y="2610" width="190" height="200" as="geometry"/>
                </mxCell>
                <mxCell id="78" value="资源账单" style="rounded=0;whiteSpace=wrap;html=1;" vertex="1" parent="1">
                    <mxGeometry x="350" y="2680" width="120" height="60" as="geometry"/>
                </mxCell>
                <mxCell id="79" value="资源标签" style="rounded=0;whiteSpace=wrap;html=1;" vertex="1" parent="1">
                    <mxGeometry x="200" y="2680" width="120" height="60" as="geometry"/>
                </mxCell>
                <mxCell id="80" value="资源表 通用信息抽象统一&lt;br&gt;Host/Rds/Lb/Cenrt" style="rounded=0;whiteSpace=wrap;html=1;" vertex="1" parent="1">
                    <mxGeometry x="40" y="2680" width="120" height="60" as="geometry"/>
                </mxCell>
                <mxCell id="81" value="资源同步模块(secret)" style="rounded=0;whiteSpace=wrap;html=1;" vertex="1" parent="1">
                    <mxGeometry x="40" y="2790" width="120" height="60" as="geometry"/>
                </mxCell>
            </root>
        </mxGraphModel>
    </diagram>
</mxfile>